<?xml version="1.0" encoding="utf-8" standalone="no"?>
<!DOCTYPE svg PUBLIC "-//W3C//DTD SVG 1.1//EN"
  "http://www.w3.org/Graphics/SVG/1.1/DTD/svg11.dtd">
<!-- Created with matplotlib (https://matplotlib.org/) -->
<svg height="345.6pt" version="1.1" viewBox="0 0 974.16 345.6" width="974.16pt" xmlns="http://www.w3.org/2000/svg" xmlns:xlink="http://www.w3.org/1999/xlink">
 <defs>
  <style type="text/css">
*{stroke-linecap:butt;stroke-linejoin:round;}
  </style>
 </defs>
 <g id="figure_1">
  <g id="patch_1">
   <path d="M 0 345.6 
L 974.16 345.6 
L 974.16 0 
L 0 0 
z
" style="fill:#ffffff;"/>
  </g>
  <g id="axes_1">
   <g id="patch_2">
    <path d="M 121.77 307.584 
L 876.744 307.584 
L 876.744 41.472 
L 121.77 41.472 
z
" style="fill:#ffffff;"/>
   </g>
   <g id="matplotlib.axis_1">
    <g id="xtick_1">
     <g id="line2d_1">
      <defs>
       <path d="M 0 0 
L 0 3.5 
" id="m444370c19d" style="stroke:#000000;stroke-width:0.8;"/>
      </defs>
      <g>
       <use style="stroke:#000000;stroke-width:0.8;" x="156.087" xlink:href="#m444370c19d" y="307.584"/>
      </g>
     </g>
     <g id="text_1">
      <!-- 0 -->
      <defs>
       <path d="M 31.78125 66.40625 
Q 24.171875 66.40625 20.328125 58.90625 
Q 16.5 51.421875 16.5 36.375 
Q 16.5 21.390625 20.328125 13.890625 
Q 24.171875 6.390625 31.78125 6.390625 
Q 39.453125 6.390625 43.28125 13.890625 
Q 47.125 21.390625 47.125 36.375 
Q 47.125 51.421875 43.28125 58.90625 
Q 39.453125 66.40625 31.78125 66.40625 
z
M 31.78125 74.21875 
Q 44.046875 74.21875 50.515625 64.515625 
Q 56.984375 54.828125 56.984375 36.375 
Q 56.984375 17.96875 50.515625 8.265625 
Q 44.046875 -1.421875 31.78125 -1.421875 
Q 19.53125 -1.421875 13.0625 8.265625 
Q 6.59375 17.96875 6.59375 36.375 
Q 6.59375 54.828125 13.0625 64.515625 
Q 19.53125 74.21875 31.78125 74.21875 
z
" id="DejaVuSans-48"/>
      </defs>
      <g transform="translate(152.90575 322.182437)scale(0.1 -0.1)">
       <use xlink:href="#DejaVuSans-48"/>
      </g>
     </g>
    </g>
    <g id="xtick_2">
     <g id="line2d_2">
      <g>
       <use style="stroke:#000000;stroke-width:0.8;" x="295.724651" xlink:href="#m444370c19d" y="307.584"/>
      </g>
     </g>
     <g id="text_2">
      <!-- 20000 -->
      <defs>
       <path d="M 19.1875 8.296875 
L 53.609375 8.296875 
L 53.609375 0 
L 7.328125 0 
L 7.328125 8.296875 
Q 12.9375 14.109375 22.625 23.890625 
Q 32.328125 33.6875 34.8125 36.53125 
Q 39.546875 41.84375 41.421875 45.53125 
Q 43.3125 49.21875 43.3125 52.78125 
Q 43.3125 58.59375 39.234375 62.25 
Q 35.15625 65.921875 28.609375 65.921875 
Q 23.96875 65.921875 18.8125 64.3125 
Q 13.671875 62.703125 7.8125 59.421875 
L 7.8125 69.390625 
Q 13.765625 71.78125 18.9375 73 
Q 24.125 74.21875 28.421875 74.21875 
Q 39.75 74.21875 46.484375 68.546875 
Q 53.21875 62.890625 53.21875 53.421875 
Q 53.21875 48.921875 51.53125 44.890625 
Q 49.859375 40.875 45.40625 35.40625 
Q 44.1875 33.984375 37.640625 27.21875 
Q 31.109375 20.453125 19.1875 8.296875 
z
" id="DejaVuSans-50"/>
      </defs>
      <g transform="translate(279.818401 322.182437)scale(0.1 -0.1)">
       <use xlink:href="#DejaVuSans-50"/>
       <use x="63.623047" xlink:href="#DejaVuSans-48"/>
       <use x="127.246094" xlink:href="#DejaVuSans-48"/>
       <use x="190.869141" xlink:href="#DejaVuSans-48"/>
       <use x="254.492188" xlink:href="#DejaVuSans-48"/>
      </g>
     </g>
    </g>
    <g id="xtick_3">
     <g id="line2d_3">
      <g>
       <use style="stroke:#000000;stroke-width:0.8;" x="435.362302" xlink:href="#m444370c19d" y="307.584"/>
      </g>
     </g>
     <g id="text_3">
      <!-- 40000 -->
      <defs>
       <path d="M 37.796875 64.3125 
L 12.890625 25.390625 
L 37.796875 25.390625 
z
M 35.203125 72.90625 
L 47.609375 72.90625 
L 47.609375 25.390625 
L 58.015625 25.390625 
L 58.015625 17.1875 
L 47.609375 17.1875 
L 47.609375 0 
L 37.796875 0 
L 37.796875 17.1875 
L 4.890625 17.1875 
L 4.890625 26.703125 
z
" id="DejaVuSans-52"/>
      </defs>
      <g transform="translate(419.456052 322.182437)scale(0.1 -0.1)">
       <use xlink:href="#DejaVuSans-52"/>
       <use x="63.623047" xlink:href="#DejaVuSans-48"/>
       <use x="127.246094" xlink:href="#DejaVuSans-48"/>
       <use x="190.869141" xlink:href="#DejaVuSans-48"/>
       <use x="254.492188" xlink:href="#DejaVuSans-48"/>
      </g>
     </g>
    </g>
    <g id="xtick_4">
     <g id="line2d_4">
      <g>
       <use style="stroke:#000000;stroke-width:0.8;" x="574.999953" xlink:href="#m444370c19d" y="307.584"/>
      </g>
     </g>
     <g id="text_4">
      <!-- 60000 -->
      <defs>
       <path d="M 33.015625 40.375 
Q 26.375 40.375 22.484375 35.828125 
Q 18.609375 31.296875 18.609375 23.390625 
Q 18.609375 15.53125 22.484375 10.953125 
Q 26.375 6.390625 33.015625 6.390625 
Q 39.65625 6.390625 43.53125 10.953125 
Q 47.40625 15.53125 47.40625 23.390625 
Q 47.40625 31.296875 43.53125 35.828125 
Q 39.65625 40.375 33.015625 40.375 
z
M 52.59375 71.296875 
L 52.59375 62.3125 
Q 48.875 64.0625 45.09375 64.984375 
Q 41.3125 65.921875 37.59375 65.921875 
Q 27.828125 65.921875 22.671875 59.328125 
Q 17.53125 52.734375 16.796875 39.40625 
Q 19.671875 43.65625 24.015625 45.921875 
Q 28.375 48.1875 33.59375 48.1875 
Q 44.578125 48.1875 50.953125 41.515625 
Q 57.328125 34.859375 57.328125 23.390625 
Q 57.328125 12.15625 50.6875 5.359375 
Q 44.046875 -1.421875 33.015625 -1.421875 
Q 20.359375 -1.421875 13.671875 8.265625 
Q 6.984375 17.96875 6.984375 36.375 
Q 6.984375 53.65625 15.1875 63.9375 
Q 23.390625 74.21875 37.203125 74.21875 
Q 40.921875 74.21875 44.703125 73.484375 
Q 48.484375 72.75 52.59375 71.296875 
z
" id="DejaVuSans-54"/>
      </defs>
      <g transform="translate(559.093703 322.182437)scale(0.1 -0.1)">
       <use xlink:href="#DejaVuSans-54"/>
       <use x="63.623047" xlink:href="#DejaVuSans-48"/>
       <use x="127.246094" xlink:href="#DejaVuSans-48"/>
       <use x="190.869141" xlink:href="#DejaVuSans-48"/>
       <use x="254.492188" xlink:href="#DejaVuSans-48"/>
      </g>
     </g>
    </g>
    <g id="xtick_5">
     <g id="line2d_5">
      <g>
       <use style="stroke:#000000;stroke-width:0.8;" x="714.637604" xlink:href="#m444370c19d" y="307.584"/>
      </g>
     </g>
     <g id="text_5">
      <!-- 80000 -->
      <defs>
       <path d="M 31.78125 34.625 
Q 24.75 34.625 20.71875 30.859375 
Q 16.703125 27.09375 16.703125 20.515625 
Q 16.703125 13.921875 20.71875 10.15625 
Q 24.75 6.390625 31.78125 6.390625 
Q 38.8125 6.390625 42.859375 10.171875 
Q 46.921875 13.96875 46.921875 20.515625 
Q 46.921875 27.09375 42.890625 30.859375 
Q 38.875 34.625 31.78125 34.625 
z
M 21.921875 38.8125 
Q 15.578125 40.375 12.03125 44.71875 
Q 8.5 49.078125 8.5 55.328125 
Q 8.5 64.0625 14.71875 69.140625 
Q 20.953125 74.21875 31.78125 74.21875 
Q 42.671875 74.21875 48.875 69.140625 
Q 55.078125 64.0625 55.078125 55.328125 
Q 55.078125 49.078125 51.53125 44.71875 
Q 48 40.375 41.703125 38.8125 
Q 48.828125 37.15625 52.796875 32.3125 
Q 56.78125 27.484375 56.78125 20.515625 
Q 56.78125 9.90625 50.3125 4.234375 
Q 43.84375 -1.421875 31.78125 -1.421875 
Q 19.734375 -1.421875 13.25 4.234375 
Q 6.78125 9.90625 6.78125 20.515625 
Q 6.78125 27.484375 10.78125 32.3125 
Q 14.796875 37.15625 21.921875 38.8125 
z
M 18.3125 54.390625 
Q 18.3125 48.734375 21.84375 45.5625 
Q 25.390625 42.390625 31.78125 42.390625 
Q 38.140625 42.390625 41.71875 45.5625 
Q 45.3125 48.734375 45.3125 54.390625 
Q 45.3125 60.0625 41.71875 63.234375 
Q 38.140625 66.40625 31.78125 66.40625 
Q 25.390625 66.40625 21.84375 63.234375 
Q 18.3125 60.0625 18.3125 54.390625 
z
" id="DejaVuSans-56"/>
      </defs>
      <g transform="translate(698.731354 322.182437)scale(0.1 -0.1)">
       <use xlink:href="#DejaVuSans-56"/>
       <use x="63.623047" xlink:href="#DejaVuSans-48"/>
       <use x="127.246094" xlink:href="#DejaVuSans-48"/>
       <use x="190.869141" xlink:href="#DejaVuSans-48"/>
       <use x="254.492188" xlink:href="#DejaVuSans-48"/>
      </g>
     </g>
    </g>
    <g id="xtick_6">
     <g id="line2d_6">
      <g>
       <use style="stroke:#000000;stroke-width:0.8;" x="854.275255" xlink:href="#m444370c19d" y="307.584"/>
      </g>
     </g>
     <g id="text_6">
      <!-- 100000 -->
      <defs>
       <path d="M 12.40625 8.296875 
L 28.515625 8.296875 
L 28.515625 63.921875 
L 10.984375 60.40625 
L 10.984375 69.390625 
L 28.421875 72.90625 
L 38.28125 72.90625 
L 38.28125 8.296875 
L 54.390625 8.296875 
L 54.390625 0 
L 12.40625 0 
z
" id="DejaVuSans-49"/>
      </defs>
      <g transform="translate(835.187755 322.182437)scale(0.1 -0.1)">
       <use xlink:href="#DejaVuSans-49"/>
       <use x="63.623047" xlink:href="#DejaVuSans-48"/>
       <use x="127.246094" xlink:href="#DejaVuSans-48"/>
       <use x="190.869141" xlink:href="#DejaVuSans-48"/>
       <use x="254.492188" xlink:href="#DejaVuSans-48"/>
       <use x="318.115234" xlink:href="#DejaVuSans-48"/>
      </g>
     </g>
    </g>
   </g>
   <g id="matplotlib.axis_2">
    <g id="ytick_1">
     <g id="line2d_7">
      <defs>
       <path d="M 0 0 
L -3.5 0 
" id="mad3bd0f185" style="stroke:#000000;stroke-width:0.8;"/>
      </defs>
      <g>
       <use style="stroke:#000000;stroke-width:0.8;" x="121.77" xlink:href="#mad3bd0f185" y="273.980466"/>
      </g>
     </g>
     <g id="text_7">
      <!-- −0.6 -->
      <defs>
       <path d="M 10.59375 35.5 
L 73.1875 35.5 
L 73.1875 27.203125 
L 10.59375 27.203125 
z
" id="DejaVuSans-8722"/>
       <path d="M 10.6875 12.40625 
L 21 12.40625 
L 21 0 
L 10.6875 0 
z
" id="DejaVuSans-46"/>
      </defs>
      <g transform="translate(90.487187 277.779685)scale(0.1 -0.1)">
       <use xlink:href="#DejaVuSans-8722"/>
       <use x="83.789062" xlink:href="#DejaVuSans-48"/>
       <use x="147.412109" xlink:href="#DejaVuSans-46"/>
       <use x="179.199219" xlink:href="#DejaVuSans-54"/>
      </g>
     </g>
    </g>
    <g id="ytick_2">
     <g id="line2d_8">
      <g>
       <use style="stroke:#000000;stroke-width:0.8;" x="121.77" xlink:href="#mad3bd0f185" y="238.684621"/>
      </g>
     </g>
     <g id="text_8">
      <!-- −0.4 -->
      <g transform="translate(90.487187 242.48384)scale(0.1 -0.1)">
       <use xlink:href="#DejaVuSans-8722"/>
       <use x="83.789062" xlink:href="#DejaVuSans-48"/>
       <use x="147.412109" xlink:href="#DejaVuSans-46"/>
       <use x="179.199219" xlink:href="#DejaVuSans-52"/>
      </g>
     </g>
    </g>
    <g id="ytick_3">
     <g id="line2d_9">
      <g>
       <use style="stroke:#000000;stroke-width:0.8;" x="121.77" xlink:href="#mad3bd0f185" y="203.388777"/>
      </g>
     </g>
     <g id="text_9">
      <!-- −0.2 -->
      <g transform="translate(90.487187 207.187996)scale(0.1 -0.1)">
       <use xlink:href="#DejaVuSans-8722"/>
       <use x="83.789062" xlink:href="#DejaVuSans-48"/>
       <use x="147.412109" xlink:href="#DejaVuSans-46"/>
       <use x="179.199219" xlink:href="#DejaVuSans-50"/>
      </g>
     </g>
    </g>
    <g id="ytick_4">
     <g id="line2d_10">
      <g>
       <use style="stroke:#000000;stroke-width:0.8;" x="121.77" xlink:href="#mad3bd0f185" y="168.092932"/>
      </g>
     </g>
     <g id="text_10">
      <!-- 0.0 -->
      <g transform="translate(98.866875 171.892151)scale(0.1 -0.1)">
       <use xlink:href="#DejaVuSans-48"/>
       <use x="63.623047" xlink:href="#DejaVuSans-46"/>
       <use x="95.410156" xlink:href="#DejaVuSans-48"/>
      </g>
     </g>
    </g>
    <g id="ytick_5">
     <g id="line2d_11">
      <g>
       <use style="stroke:#000000;stroke-width:0.8;" x="121.77" xlink:href="#mad3bd0f185" y="132.797088"/>
      </g>
     </g>
     <g id="text_11">
      <!-- 0.2 -->
      <g transform="translate(98.866875 136.596306)scale(0.1 -0.1)">
       <use xlink:href="#DejaVuSans-48"/>
       <use x="63.623047" xlink:href="#DejaVuSans-46"/>
       <use x="95.410156" xlink:href="#DejaVuSans-50"/>
      </g>
     </g>
    </g>
    <g id="ytick_6">
     <g id="line2d_12">
      <g>
       <use style="stroke:#000000;stroke-width:0.8;" x="121.77" xlink:href="#mad3bd0f185" y="97.501243"/>
      </g>
     </g>
     <g id="text_12">
      <!-- 0.4 -->
      <g transform="translate(98.866875 101.300462)scale(0.1 -0.1)">
       <use xlink:href="#DejaVuSans-48"/>
       <use x="63.623047" xlink:href="#DejaVuSans-46"/>
       <use x="95.410156" xlink:href="#DejaVuSans-52"/>
      </g>
     </g>
    </g>
    <g id="ytick_7">
     <g id="line2d_13">
      <g>
       <use style="stroke:#000000;stroke-width:0.8;" x="121.77" xlink:href="#mad3bd0f185" y="62.205398"/>
      </g>
     </g>
     <g id="text_13">
      <!-- 0.6 -->
      <g transform="translate(98.866875 66.004617)scale(0.1 -0.1)">
       <use xlink:href="#DejaVuSans-48"/>
       <use x="63.623047" xlink:href="#DejaVuSans-46"/>
       <use x="95.410156" xlink:href="#DejaVuSans-54"/>
      </g>
     </g>
    </g>
   </g>
   <g id="line2d_14">
    <path clip-path="url(#pc10dc0a380)" d="M 156.087 180.954057 
L 156.324384 186.943605 
L 156.519877 190.081086 
L 156.540822 190.017612 
L 156.617623 188.936443 
L 156.785188 182.41074 
L 157.232029 164.848715 
L 157.27392 164.688989 
L 157.329775 164.923531 
L 157.448467 167.033067 
L 157.657924 175.753596 
L 158.509713 217.670847 
L 158.537641 217.678217 
L 158.57255 217.60203 
L 158.712188 216.703756 
L 158.956554 213.682071 
L 159.152046 207.811785 
L 159.42434 191.432371 
L 160.066673 151.818917 
L 160.171401 150.765802 
L 160.220274 150.974845 
L 160.331985 152.926763 
L 160.667115 164.427272 
L 160.974318 170.733095 
L 161.588723 176.310245 
L 161.616651 176.322609 
L 161.65156 176.245052 
L 161.749307 175.367225 
L 161.902908 171.520622 
L 162.161238 158.185169 
L 162.517314 143.068428 
L 162.545241 142.961042 
L 162.594115 143.230364 
L 162.705825 145.813084 
L 163.033973 160.788915 
L 163.383067 171.357471 
L 163.788016 176.429275 
L 163.920672 177.049973 
L 163.962564 176.979466 
L 164.053328 176.240173 
L 164.213911 172.643793 
L 164.472241 160.796352 
L 165.058719 133.12113 
L 165.114574 132.869297 
L 165.163447 133.077429 
L 165.282139 135.001921 
L 165.861636 149.065917 
L 165.959382 148.432018 
L 166.119965 144.913219 
L 166.420186 132.585932 
L 167.146302 100.613973 
L 167.209139 100.396514 
L 167.264994 100.542203 
L 167.39765 101.849417 
L 168.026019 108.979863 
L 168.570606 112.066933 
L 168.58457 112.062206 
L 168.654389 111.856035 
L 168.766099 110.633902 
L 168.933664 105.743838 
L 169.219921 89.032377 
L 169.582979 72.270259 
L 169.62487 72.034862 
L 169.673743 72.358406 
L 169.778472 75.309501 
L 169.973964 88.544944 
L 170.658189 139.761955 
L 170.867645 142.048676 
L 170.9235 141.958861 
L 171.056156 141.033803 
L 171.51696 135.430136 
L 172.215149 126.6248 
L 172.25704 126.685167 
L 172.375732 127.329397 
L 172.648025 128.972445 
L 172.689917 128.906697 
L 172.794645 128.177588 
L 173.032029 124.418379 
L 173.611525 111.812388 
L 174.072329 100.968288 
L 174.14913 100.712306 
L 174.198003 100.822314 
L 174.316695 101.889844 
L 174.533134 106.294944 
L 174.972992 116.17406 
L 175.007902 116.064377 
L 175.098666 114.683264 
L 175.280195 107.621108 
L 175.789873 87.108532 
L 175.852709 86.864469 
L 175.901583 87.016892 
L 176.034238 88.510614 
L 176.536934 98.06454 
L 176.948865 104.158539 
L 177.074539 104.566339 
L 177.109448 104.518216 
L 177.200213 103.975064 
L 177.346832 101.388511 
L 177.563271 92.658511 
L 178.128803 68.443844 
L 178.149749 68.403674 
L 178.19164 68.550578 
L 178.30335 70.228985 
L 178.638481 80.201259 
L 179.37856 105.521301 
L 180.048821 130.551038 
L 180.237332 131.464056 
L 180.356024 131.807286 
L 180.474716 133.146016 
L 180.656245 138.407839 
L 180.956466 155.103116 
L 181.871092 209.368654 
L 182.45757 226.835366 
L 183.106885 250.886374 
L 183.616563 259.797333 
L 183.916784 277.129617 
L 184.293805 294.910602 
L 184.370606 295.488 
L 184.419479 295.239961 
L 184.538171 292.894665 
L 184.838392 280.920991 
L 185.299197 265.919572 
L 185.557526 255.10146 
L 186.290624 217.525717 
L 186.31157 217.561476 
L 186.38837 218.256796 
L 186.639718 223.521794 
L 186.807283 225.306817 
L 186.835211 225.234409 
L 186.925975 224.172092 
L 187.114486 218.52103 
L 187.6102 203.440316 
L 187.707946 203.026633 
L 187.756819 203.129414 
L 187.903439 204.191581 
L 188.05704 205.086746 
L 188.098931 204.985576 
L 188.189696 203.886716 
L 188.343297 198.650862 
L 188.678428 176.920706 
L 189.160178 151.670045 
L 189.614 136.814387 
L 189.641928 136.719047 
L 189.690801 136.95672 
L 189.795529 139.291307 
L 189.991022 149.782407 
L 190.877721 206.384057 
L 190.898666 206.316754 
L 190.975467 205.211295 
L 191.143032 198.697471 
L 192.176351 149.673995 
L 192.232206 149.460674 
L 192.288061 149.650088 
L 192.413735 151.356591 
L 192.902467 159.353454 
L 192.930394 159.320745 
L 193.035122 158.788881 
L 193.300434 157.222808 
L 193.342325 157.31117 
L 193.440072 158.201155 
L 193.600655 162.211212 
L 193.893894 176.71976 
L 194.242988 189.999025 
L 194.298843 190.272174 
L 194.347716 190.057458 
L 194.466408 188.07136 
L 194.906267 174.837307 
L 195.730129 152.732137 
L 195.792966 152.625853 
L 195.841839 152.725941 
L 195.946567 153.554292 
L 196.114133 157.062326 
L 196.456245 170.6875 
L 196.742502 177.60244 
L 196.784393 177.69635 
L 196.833267 177.509377 
L 196.95894 175.80443 
L 197.447672 167.668174 
L 197.482582 167.728765 
L 197.573346 168.542172 
L 197.733929 172.604504 
L 197.999241 186.385332 
L 198.494955 210.702741 
L 198.683465 212.96559 
L 198.697429 212.951705 
L 198.760266 212.56292 
L 198.892922 209.98065 
L 199.158233 199.321607 
L 199.528273 187.171056 
L 199.62602 186.623635 
L 199.674893 186.726311 
L 199.800567 187.774491 
L 200.435918 196.393913 
L 200.833885 204.460525 
L 201.280726 212.301749 
L 201.308653 212.350764 
L 201.357526 212.196731 
L 201.462255 210.701672 
L 201.650766 203.844288 
L 202.328008 175.85274 
L 202.418773 175.573529 
L 202.467646 175.646705 
L 202.837686 176.963779 
L 202.991287 177.970492 
L 203.172816 181.041632 
L 203.473037 190.760465 
L 204.275953 220.20108 
L 204.317845 220.061903 
L 204.415591 218.573516 
L 204.611084 211.361487 
L 205.588547 169.319066 
L 205.679312 169.027318 
L 205.728185 169.118826 
L 205.867823 169.963462 
L 206.070297 172.610714 
L 206.258808 178.681957 
L 206.531101 196.574506 
L 207.11758 234.716712 
L 207.4178 242.495763 
L 207.445728 242.578388 
L 207.494601 242.375076 
L 207.599329 240.45492 
L 207.885587 229.433051 
L 208.164862 223.055957 
L 208.499992 218.597444 
L 208.786249 208.754973 
L 209.693894 175.642008 
L 209.707858 175.654813 
L 209.777677 176.042423 
L 210.022043 179.305575 
L 210.42001 186.089946 
L 210.664376 197.27966 
L 211.181035 222.008998 
L 211.194999 221.985836 
L 211.250854 221.257929 
L 211.376528 215.850685 
L 211.627876 192.875801 
L 212.116607 151.772468 
L 212.333046 147.50022 
L 212.353991 147.510269 
L 212.374937 147.585 
L 212.472683 148.70331 
L 212.696104 154.591311 
L 213.345419 179.370477 
L 213.715459 191.337956 
L 213.729422 191.336515 
L 213.750368 191.238885 
L 213.834151 189.656227 
L 214.001716 181.14194 
L 214.490448 155.27525 
L 214.532339 155.115105 
L 214.581212 155.338069 
L 214.699904 157.413124 
L 214.923324 165.922213 
L 215.272418 189.1383 
L 215.705295 214.030888 
L 215.823987 215.349266 
L 215.865878 215.167333 
L 215.970607 213.384036 
L 216.166099 205.564328 
L 216.445375 184.132038 
L 217.143563 125.852759 
L 217.283201 124.056761 
L 217.31811 124.163361 
L 217.415856 125.511143 
L 217.611349 132.045866 
L 218.079135 157.657926 
L 218.693541 185.754602 
L 218.916961 189.703621 
L 218.923943 189.695523 
L 218.979798 189.263202 
L 219.09849 185.993497 
L 219.314928 172.331083 
L 219.761769 145.282034 
L 219.831588 144.76507 
L 219.880461 145.02162 
L 220.006135 147.42268 
L 221.444403 184.957728 
L 221.507239 184.588456 
L 221.625931 181.832546 
L 221.863315 169.878063 
L 222.456775 139.874742 
L 222.729069 135.990262 
L 222.987399 132.725111 
L 223.273656 124.987104 
L 223.678605 108.034729 
L 224.467558 70.225762 
L 224.802688 66.427158 
L 225.005163 65.708233 
L 225.019126 65.714302 
L 225.102909 65.911764 
L 225.25651 66.999441 
L 225.479931 70.398355 
L 226.031499 82.808994 
L 226.136228 81.737091 
L 226.296811 75.778771 
L 226.806488 53.568 
L 226.834416 53.693245 
L 226.918198 55.427748 
L 227.078782 64.565561 
L 227.413912 100.470371 
L 227.797916 132.05835 
L 228.091155 140.275907 
L 228.412321 143.964727 
L 228.454213 144.025617 
L 228.503086 143.904527 
L 228.607814 142.840652 
L 228.789343 138.217843 
L 229.285057 123.364464 
L 229.319966 123.520963 
L 229.417712 125.414055 
L 229.606223 134.725321 
L 230.171756 164.63059 
L 230.248556 165.036775 
L 230.304411 164.867906 
L 230.437067 163.335297 
L 230.688415 157.391208 
L 231.037509 143.096763 
L 231.749661 112.690305 
L 231.777589 112.629082 
L 231.826462 112.819413 
L 231.952136 114.736035 
L 232.245375 119.663777 
L 232.280284 119.519092 
L 232.378031 117.784642 
L 232.587487 108.711539 
L 232.929599 96.465823 
L 232.950545 96.413348 
L 232.992436 96.610716 
L 233.097164 98.805789 
L 233.320585 109.549981 
L 233.85819 134.582819 
L 234.130483 139.207424 
L 234.172374 139.285645 
L 234.221248 139.127188 
L 234.332958 137.706554 
L 234.521469 131.744657 
L 234.800744 114.542393 
L 235.324385 83.197423 
L 235.394204 82.603054 
L 235.450059 82.953321 
L 235.568751 85.944546 
L 235.848026 100.345756 
L 236.532251 146.460361 
L 237.118729 186.623321 
L 237.27233 189.007039 
L 237.300258 188.945054 
L 237.38404 187.976989 
L 237.621424 181.700877 
L 237.914663 176.519693 
L 237.970519 176.397075 
L 238.026374 176.516553 
L 238.159029 177.575351 
L 238.375468 181.333018 
L 238.626815 190.158819 
L 239.953373 246.037848 
L 240.037156 246.671062 
L 240.086029 246.464035 
L 240.197739 244.448523 
L 240.421159 235.253582 
L 240.868 218.001593 
L 240.888945 217.954917 
L 240.930837 218.158478 
L 241.035565 220.371516 
L 241.258985 231.352149 
L 241.670916 249.582127 
L 241.754699 250.149038 
L 241.803572 249.964144 
L 241.922264 248.249377 
L 242.271358 238.711203 
L 242.711217 222.889833 
L 243.151075 193.337137 
L 243.674717 165.462836 
L 243.863227 162.671607 
L 243.877191 162.688543 
L 243.94701 163.179883 
L 244.121557 166.58024 
L 244.589343 175.606398 
L 244.65218 175.728192 
L 244.708035 175.641835 
L 244.938437 174.950201 
L 245.001274 175.084534 
L 245.13393 176.090702 
L 245.420187 178.611293 
L 245.462078 178.50406 
L 245.552843 177.442208 
L 245.713426 172.214215 
L 245.992702 153.857802 
L 246.54427 119.184785 
L 246.662962 117.649052 
L 246.704854 117.808643 
L 246.8026 119.568914 
L 246.998093 128.198608 
L 247.389078 157.852201 
L 247.982538 199.461279 
L 248.108212 201.262539 
L 248.150103 201.049931 
L 248.254832 198.900294 
L 248.485234 188.432565 
L 249.267204 151.07136 
L 249.39986 149.776685 
L 249.441752 149.897666 
L 249.54648 151.293187 
L 249.783864 158.48066 
L 250.153904 167.552783 
L 250.293541 168.128777 
L 250.321469 168.105579 
L 250.454125 167.705389 
L 250.565835 167.467284 
L 250.614708 167.547147 
L 250.712454 168.289516 
L 250.866056 171.635592 
L 251.124385 183.519274 
L 251.55028 201.098042 
L 251.88541 205.3948 
L 252.136758 207.341664 
L 252.157704 207.318073 
L 252.234505 206.823863 
L 252.374142 204.057596 
L 252.618508 193.765479 
L 253.351606 160.695429 
L 253.36557 160.679211 
L 253.400479 160.798829 
L 253.498225 162.273657 
L 253.728627 170.233887 
L 255.020276 219.022516 
L 255.306533 223.390339 
L 255.327479 223.408411 
L 255.36937 223.29953 
L 255.48108 222.13221 
L 256.018685 211.968172 
L 256.346833 204.171526 
L 256.647054 198.950895 
L 256.688946 199.04553 
L 256.786692 200.150721 
L 257.470916 210.099806 
L 257.673391 211.802672 
L 257.96663 213.766046 
L 258.043431 213.66056 
L 258.238924 213.207973 
L 258.287797 213.298227 
L 258.399507 214.05982 
L 258.741619 217.730134 
L 258.81842 217.362509 
L 258.951076 214.817399 
L 259.251297 203.200894 
L 260.110068 171.543478 
L 260.284615 170.023823 
L 260.298579 170.0356 
L 260.37538 170.354734 
L 260.605782 172.62423 
L 260.864111 176.935687 
L 261.115459 186.069032 
L 261.569282 201.828726 
L 261.653064 202.227417 
L 261.701937 202.118033 
L 261.827611 200.99523 
L 262.092923 196.163591 
L 262.504854 183.708592 
L 262.805075 178.061932 
L 263.070386 176.931234 
L 263.258897 176.284375 
L 263.30777 176.388564 
L 263.398535 177.286306 
L 263.552136 181.593144 
L 263.887267 199.607796 
L 264.899639 251.647422 
L 265.074187 252.066635 
L 265.178915 252.367229 
L 265.437244 253.80487 
L 265.514045 253.477957 
L 265.632737 251.334202 
L 265.835212 242.737584 
L 266.889476 189.856119 
L 266.931367 189.938015 
L 267.043077 190.930906 
L 267.434063 194.451825 
L 267.622574 195.303536 
L 267.790139 197.598845 
L 268.257925 207.41907 
L 268.348689 206.351057 
L 268.481345 200.446803 
L 268.725711 176.964901 
L 269.256334 127.726807 
L 269.5007 121.185698 
L 269.563537 120.966084 
L 269.61241 121.110086 
L 269.738084 122.444893 
L 270.045287 128.771589 
L 270.450236 141.221114 
L 270.904058 156.678803 
L 270.931986 156.595508 
L 271.015769 155.159558 
L 271.204279 146.694595 
L 271.595265 130.743372 
L 271.679047 130.308842 
L 271.727921 130.436687 
L 271.888504 131.792788 
L 272.314399 137.000513 
L 272.523855 145.405192 
L 273.312808 185.179604 
L 273.354699 184.984617 
L 273.459427 182.918774 
L 273.661902 173.342238 
L 274.297253 141.130695 
L 274.660311 134.6555 
L 274.76504 134.19352 
L 274.806931 134.296879 
L 274.904677 135.291836 
L 275.079224 139.823112 
L 275.986869 168.260535 
L 276.035742 168.154339 
L 276.14047 167.170336 
L 276.315017 162.942993 
L 276.608257 148.976879 
L 276.887532 139.919058 
L 276.901496 139.907313 
L 276.929423 140.03129 
L 277.020188 141.72659 
L 277.236626 151.318804 
L 277.690448 169.518017 
L 278.186162 177.797732 
L 278.444492 180.161235 
L 278.493365 180.041246 
L 278.598093 178.956533 
L 278.77264 174.309568 
L 279.058897 159.290617 
L 279.484792 139.312104 
L 279.561593 138.742479 
L 279.610466 138.976397 
L 279.722176 141.107035 
L 279.973524 151.368097 
L 280.448292 168.974855 
L 280.629821 170.768751 
L 280.650767 170.730086 
L 280.727567 170.072578 
L 280.874187 166.333943 
L 281.118553 153.086867 
L 281.879578 108.303383 
L 282.144889 104.127316 
L 282.193763 104.028026 
L 282.242636 104.177337 
L 282.347364 105.423517 
L 282.528893 110.879888 
L 282.829114 128.264383 
L 283.227081 148.280209 
L 283.261991 148.482262 
L 283.310864 148.165418 
L 283.415592 145.111001 
L 283.618067 131.160644 
L 284.204545 88.454208 
L 284.218508 88.466816 
L 284.232472 88.550873 
L 284.309273 90.274591 
L 284.476838 100.588492 
L 285.18899 151.094472 
L 285.489211 156.207784 
L 285.593939 156.620905 
L 285.642813 156.52014 
L 285.754523 155.558218 
L 285.984925 151.086819 
L 286.941443 131.212639 
L 286.983334 131.162524 
L 287.025225 131.264161 
L 287.143917 132.284969 
L 287.667558 139.267485 
L 287.758323 138.735848 
L 287.890979 135.864641 
L 288.114399 125.079974 
L 288.686913 96.363843 
L 288.798623 95.529114 
L 288.840515 95.611954 
L 288.959207 96.616918 
L 289.182627 98.470841 
L 289.217536 98.391433 
L 289.308301 97.407515 
L 289.475866 92.431449 
L 290.08329 68.934875 
L 290.139145 69.25241 
L 290.257837 71.920739 
L 290.523148 84.470841 
L 291.067735 108.427774 
L 291.360974 113.216094 
L 291.423811 113.401987 
L 291.472684 113.281648 
L 291.570431 112.21094 
L 291.731014 107.51944 
L 291.982362 92.411798 
L 292.554876 57.197603 
L 292.603749 56.865135 
L 292.659604 57.207346 
L 292.778297 60.295362 
L 293.029644 74.176374 
L 293.727833 128.135608 
L 294.174673 155.337123 
L 294.384129 159.089452 
L 294.391111 159.086596 
L 294.439985 158.844941 
L 294.57264 156.582093 
L 294.879843 151.063098 
L 294.907771 151.134403 
L 294.991553 152.219085 
L 295.159118 158.15617 
L 295.508213 180.603172 
L 296.094691 215.41025 
L 296.255274 217.358289 
L 296.27622 217.321268 
L 296.366984 216.628976 
L 296.681169 213.734018 
L 296.72306 213.796677 
L 296.83477 214.523819 
L 297.183864 218.949505 
L 297.923944 230.401431 
L 298.182274 242.307675 
L 298.657042 263.211079 
L 298.712897 263.485911 
L 298.76177 263.236028 
L 298.880462 260.905836 
L 299.166719 249.411977 
L 299.683378 231.311676 
L 300.081346 218.155143 
L 301.030882 178.023648 
L 301.338085 175.200046 
L 301.456777 174.879835 
L 301.498668 174.935845 
L 301.596414 175.529846 
L 301.770961 178.343682 
L 302.092128 187.818229 
L 302.664642 209.871841 
L 302.755407 208.841459 
L 302.902026 202.635885 
L 303.216211 177.106962 
L 303.816653 131.999221 
L 304.061019 125.6388 
L 304.074982 125.634847 
L 304.10291 125.747032 
L 304.200656 127.330158 
L 304.403131 135.223359 
L 304.773171 159.452833 
L 305.317758 193.991831 
L 305.40154 194.75923 
L 305.450413 194.528222 
L 305.569105 192.279463 
L 305.904236 180.061462 
L 306.581478 157.577966 
L 306.790935 156.319166 
L 306.972464 155.69636 
L 307.147011 153.896045 
L 307.684616 146.61678 
L 307.747453 146.875231 
L 307.859163 148.787557 
L 308.03371 156.557696 
L 308.326949 182.032321 
L 308.794735 218.344368 
L 309.10892 227.049466 
L 309.311394 228.766839 
L 309.325358 228.753355 
L 309.395177 228.390626 
L 309.534815 226.168242 
L 309.793144 217.673401 
L 310.40755 196.889175 
L 310.421514 196.876332 
L 310.456423 196.98748 
L 310.554169 198.362898 
L 310.756644 205.204977 
L 311.391995 227.678605 
L 311.720144 232.18992 
L 312.048292 235.892055 
L 312.488151 242.200529 
L 312.52306 242.13122 
L 312.620807 241.22359 
L 312.816299 236.719725 
L 313.458633 214.485818 
L 313.891509 200.734897 
L 314.045111 199.82668 
L 314.073038 199.851085 
L 314.170785 200.261427 
L 314.380241 202.309587 
L 314.631589 207.11187 
L 315.064466 217.335321 
L 315.113339 217.079146 
L 315.218067 214.784469 
L 315.441487 203.558621 
L 315.958147 178.714133 
L 316.97052 148.913019 
L 317.019393 149.036227 
L 317.124121 150.198708 
L 317.312632 155.314017 
L 317.8642 171.264207 
L 318.115548 173.42791 
L 318.304059 179.006314 
L 318.743918 192.728942 
L 318.757881 192.705168 
L 318.820718 192.082443 
L 318.960356 187.879879 
L 319.337378 167.077211 
L 319.833091 145.119441 
L 320.000657 143.432861 
L 320.021602 143.463344 
L 320.112367 144.046417 
L 320.370696 147.708503 
L 320.60808 153.732474 
L 320.852446 167.113025 
L 321.613471 213.147545 
L 321.899729 220.412831 
L 321.920674 220.445192 
L 321.962566 220.265969 
L 322.067294 218.484734 
L 322.360533 208.19614 
L 323.694072 164.599405 
L 323.728982 164.647207 
L 323.735964 164.674749 
L 323.826728 165.64301 
L 323.987311 170.481623 
L 324.664554 195.137207 
L 324.741355 195.025608 
L 324.860047 194.846131 
L 324.901938 194.90607 
L 325.006666 195.482341 
L 325.397652 199.368851 
L 325.488416 198.801149 
L 325.621072 195.55219 
L 325.851474 182.893451 
L 326.305296 159.249521 
L 326.368133 158.807693 
L 326.423988 159.096996 
L 326.54268 161.571211 
L 327.205959 180.701287 
L 327.275778 180.543199 
L 327.50618 179.553746 
L 327.569017 179.751764 
L 327.687709 181.200992 
L 328.106622 190.081086 
L 328.204369 188.936443 
L 328.371934 182.41074 
L 328.818774 164.848715 
L 328.860666 164.688989 
L 328.916521 164.923531 
L 329.035213 167.033067 
L 329.244669 175.753596 
L 330.096459 217.670847 
L 330.124386 217.678217 
L 330.159296 217.60203 
L 330.298933 216.703756 
L 330.543299 213.682071 
L 330.738792 207.811785 
L 331.011085 191.432371 
L 331.653419 151.818917 
L 331.758147 150.765802 
L 331.80702 150.974845 
L 331.91873 152.926763 
L 332.25386 164.427272 
L 332.561063 170.733095 
L 333.175469 176.310245 
L 333.203396 176.322609 
L 333.238306 176.245052 
L 333.336052 175.367225 
L 333.489654 171.520622 
L 333.747983 158.185169 
L 334.104059 143.068428 
L 334.131987 142.961042 
L 334.18086 143.230364 
L 334.29257 145.813084 
L 334.620719 160.788915 
L 334.969813 171.357471 
L 335.374762 176.429275 
L 335.507418 177.049973 
L 335.549309 176.979466 
L 335.640073 176.240173 
L 335.800657 172.643793 
L 336.058986 160.796352 
L 336.645465 133.12113 
L 336.70132 132.869297 
L 336.750193 133.077429 
L 336.868885 135.001921 
L 337.448381 149.065917 
L 337.546127 148.432018 
L 337.706711 144.913219 
L 338.006932 132.585932 
L 338.733047 100.613973 
L 338.795884 100.396514 
L 338.851739 100.542203 
L 338.984395 101.849417 
L 339.612765 108.979863 
L 340.157351 112.066933 
L 340.171315 112.062206 
L 340.241134 111.856035 
L 340.352844 110.633902 
L 340.520409 105.743838 
L 340.806667 89.032377 
L 341.169724 72.270259 
L 341.211616 72.034862 
L 341.260489 72.358406 
L 341.365217 75.309501 
L 341.56071 88.544944 
L 342.244934 139.761955 
L 342.454391 142.048676 
L 342.510246 141.958861 
L 342.642902 141.033803 
L 343.103706 135.430136 
L 343.801894 126.6248 
L 343.843785 126.685167 
L 343.962477 127.329397 
L 344.234771 128.972445 
L 344.276662 128.906697 
L 344.38139 128.177588 
L 344.618774 124.418379 
L 345.198271 111.812388 
L 345.659075 100.968288 
L 345.735876 100.712306 
L 345.784749 100.822314 
L 345.903441 101.889844 
L 346.119879 106.294944 
L 346.559738 116.17406 
L 346.594647 116.064377 
L 346.685412 114.683264 
L 346.866941 107.621108 
L 347.376618 87.108532 
L 347.439455 86.864469 
L 347.488328 87.016892 
L 347.620984 88.510614 
L 348.123679 98.06454 
L 348.535611 104.158539 
L 348.661284 104.566339 
L 348.696194 104.518216 
L 348.786958 103.975064 
L 348.933578 101.388511 
L 349.150016 92.658511 
L 349.715549 68.443844 
L 349.736494 68.403674 
L 349.778386 68.550578 
L 349.890096 70.228985 
L 350.225226 80.201259 
L 350.965306 105.521301 
L 351.635566 130.551038 
L 351.824077 131.464056 
L 351.942769 131.807286 
L 352.061461 133.146016 
L 352.24299 138.407839 
L 352.543211 155.103116 
L 353.457838 209.368654 
L 354.044316 226.835366 
L 354.693631 250.886374 
L 355.203308 259.797333 
L 355.503529 277.129617 
L 355.880551 294.910602 
L 355.957352 295.488 
L 356.006225 295.239961 
L 356.124917 292.894665 
L 356.425138 280.920991 
L 356.885942 265.919572 
L 357.144272 255.10146 
L 357.877369 217.525717 
L 357.898315 217.561476 
L 357.975116 218.256796 
L 358.226463 223.521794 
L 358.394029 225.306817 
L 358.421956 225.234409 
L 358.512721 224.172092 
L 358.701232 218.52103 
L 359.196945 203.440316 
L 359.294692 203.026633 
L 359.343565 203.129414 
L 359.490184 204.191581 
L 359.643786 205.086746 
L 359.685677 204.985576 
L 359.776441 203.886716 
L 359.930043 198.650862 
L 360.265173 176.920706 
L 360.746923 151.670045 
L 361.200745 136.814387 
L 361.228673 136.719047 
L 361.277546 136.95672 
L 361.382274 139.291307 
L 361.577767 149.782407 
L 362.464466 206.384057 
L 362.485412 206.316754 
L 362.562213 205.211295 
L 362.729778 198.697471 
L 363.763096 149.673995 
L 363.818951 149.460674 
L 363.874806 149.650088 
L 364.00048 151.356591 
L 364.489212 159.353454 
L 364.51714 159.320745 
L 364.621868 158.788881 
L 364.887179 157.222808 
L 364.929071 157.31117 
L 365.026817 158.201155 
L 365.1874 162.211212 
L 365.480639 176.71976 
L 365.829734 189.999025 
L 365.885589 190.272174 
L 365.934462 190.057458 
L 366.053154 188.07136 
L 366.493012 174.837307 
L 367.316875 152.732137 
L 367.379712 152.625853 
L 367.428585 152.725941 
L 367.533313 153.554292 
L 367.700878 157.062326 
L 368.04299 170.6875 
L 368.329248 177.60244 
L 368.371139 177.69635 
L 368.420012 177.509377 
L 368.545686 175.80443 
L 369.034418 167.668174 
L 369.069327 167.728765 
L 369.160092 168.542172 
L 369.320675 172.604504 
L 369.585986 186.385332 
L 370.0817 210.702741 
L 370.270211 212.96559 
L 370.284175 212.951705 
L 370.347012 212.56292 
L 370.479667 209.98065 
L 370.744979 199.321607 
L 371.115019 187.171056 
L 371.212765 186.623635 
L 371.261638 186.726311 
L 371.387312 187.774491 
L 372.022663 196.393913 
L 372.420631 204.460525 
L 372.867471 212.301749 
L 372.895399 212.350764 
L 372.944272 212.196731 
L 373.049 210.701672 
L 373.237511 203.844288 
L 373.914754 175.85274 
L 374.005518 175.573529 
L 374.054391 175.646705 
L 374.424431 176.963779 
L 374.578032 177.970492 
L 374.759561 181.041632 
L 375.059782 190.760465 
L 375.862699 220.20108 
L 375.90459 220.061903 
L 376.002336 218.573516 
L 376.197829 211.361487 
L 377.175293 169.319066 
L 377.266057 169.027318 
L 377.31493 169.118826 
L 377.454568 169.963462 
L 377.657043 172.610714 
L 377.845553 178.681957 
L 378.117847 196.574506 
L 378.704325 234.716712 
L 379.004546 242.495763 
L 379.032473 242.578388 
L 379.081347 242.375076 
L 379.186075 240.45492 
L 379.472332 229.433051 
L 379.751607 223.055957 
L 380.086738 218.597444 
L 380.372995 208.754973 
L 381.28064 175.642008 
L 381.294603 175.654813 
L 381.364422 176.042423 
L 381.608788 179.305575 
L 382.006755 186.089946 
L 382.251121 197.27966 
L 382.767781 222.008998 
L 382.781744 221.985836 
L 382.837599 221.257929 
L 382.963273 215.850685 
L 383.214621 192.875801 
L 383.703353 151.772468 
L 383.919791 147.50022 
L 383.940737 147.510269 
L 383.961683 147.585 
L 384.059429 148.70331 
L 384.282849 154.591311 
L 384.932164 179.370477 
L 385.302204 191.337956 
L 385.316168 191.336515 
L 385.337113 191.238885 
L 385.420896 189.656227 
L 385.588461 181.14194 
L 386.077193 155.27525 
L 386.119084 155.115105 
L 386.167957 155.338069 
L 386.286649 157.413124 
L 386.51007 165.922213 
L 386.859164 189.1383 
L 387.292041 214.030888 
L 387.410733 215.349266 
L 387.452624 215.167333 
L 387.557352 213.384036 
L 387.752845 205.564328 
L 388.03212 184.132038 
L 388.730308 125.852759 
L 388.869946 124.056761 
L 388.904855 124.163361 
L 389.002602 125.511143 
L 389.198094 132.045866 
L 389.665881 157.657926 
L 390.280286 185.754602 
L 390.503707 189.703621 
L 390.510688 189.695523 
L 390.566543 189.263202 
L 390.685235 185.993497 
L 390.901674 172.331083 
L 391.348514 145.282034 
L 391.418333 144.76507 
L 391.467206 145.02162 
L 391.59288 147.42268 
L 393.031148 184.957728 
L 393.093985 184.588456 
L 393.212677 181.832546 
L 393.450061 169.878063 
L 394.043521 139.874742 
L 394.315814 135.990262 
L 394.574144 132.725111 
L 394.860401 124.987104 
L 395.26535 108.034729 
L 396.054303 70.225762 
L 396.389433 66.427158 
L 396.591908 65.708233 
L 396.605872 65.714302 
L 396.689654 65.911764 
L 396.843256 66.999441 
L 397.066676 70.398355 
L 397.618245 82.808994 
L 397.722973 81.737091 
L 397.883556 75.778771 
L 398.393234 53.568 
L 398.421161 53.693245 
L 398.504944 55.427748 
L 398.665527 64.565561 
L 399.000658 100.470371 
L 399.384661 132.05835 
L 399.6779 140.275907 
L 399.999067 143.964727 
L 400.040958 144.025617 
L 400.089831 143.904527 
L 400.194559 142.840652 
L 400.376088 138.217843 
L 400.871802 123.364464 
L 400.906712 123.520963 
L 401.004458 125.414055 
L 401.192969 134.725321 
L 401.758501 164.63059 
L 401.835302 165.036775 
L 401.891157 164.867906 
L 402.023813 163.335297 
L 402.27516 157.391208 
L 402.624255 143.096763 
L 403.336407 112.690305 
L 403.364334 112.629082 
L 403.413207 112.819413 
L 403.538881 114.736035 
L 403.83212 119.663777 
L 403.86703 119.519092 
L 403.964776 117.784642 
L 404.174233 108.711539 
L 404.516345 96.465823 
L 404.53729 96.413348 
L 404.579182 96.610716 
L 404.68391 98.805789 
L 404.90733 109.549981 
L 405.444935 134.582819 
L 405.717229 139.207424 
L 405.75912 139.285645 
L 405.807993 139.127188 
L 405.919703 137.706554 
L 406.108214 131.744657 
L 406.387489 114.542393 
L 406.91113 83.197423 
L 406.980949 82.603054 
L 407.036804 82.953321 
L 407.155496 85.944546 
L 407.434772 100.345756 
L 408.118996 146.460361 
L 408.705474 186.623321 
L 408.859076 189.007039 
L 408.887003 188.945054 
L 408.970786 187.976989 
L 409.20817 181.700877 
L 409.501409 176.519693 
L 409.557264 176.397075 
L 409.613119 176.516553 
L 409.745775 177.575351 
L 409.962213 181.333018 
L 410.213561 190.158819 
L 411.540119 246.037848 
L 411.623901 246.671062 
L 411.672774 246.464035 
L 411.784485 244.448523 
L 412.007905 235.253582 
L 412.454745 218.001593 
L 412.475691 217.954917 
L 412.517582 218.158478 
L 412.62231 220.371516 
L 412.845731 231.352149 
L 413.257662 249.582127 
L 413.341444 250.149038 
L 413.390317 249.964144 
L 413.50901 248.249377 
L 413.858104 238.711203 
L 414.297962 222.889833 
L 414.737821 193.337137 
L 415.261462 165.462836 
L 415.449973 162.671607 
L 415.463937 162.688543 
L 415.533755 163.179883 
L 415.708303 166.58024 
L 416.176089 175.606398 
L 416.238926 175.728192 
L 416.294781 175.641835 
L 416.525183 174.950201 
L 416.58802 175.084534 
L 416.720675 176.090702 
L 417.006933 178.611293 
L 417.048824 178.50406 
L 417.139588 177.442208 
L 417.300172 172.214215 
L 417.579447 153.857802 
L 418.131016 119.184785 
L 418.249708 117.649052 
L 418.291599 117.808643 
L 418.389345 119.568914 
L 418.584838 128.198608 
L 418.975824 157.852201 
L 419.569284 199.461279 
L 419.694957 201.262539 
L 419.736849 201.049931 
L 419.841577 198.900294 
L 420.071979 188.432565 
L 420.85395 151.07136 
L 420.986606 149.776685 
L 421.028497 149.897666 
L 421.133225 151.293187 
L 421.370609 158.48066 
L 421.740649 167.552783 
L 421.880287 168.128777 
L 421.908214 168.105579 
L 422.04087 167.705389 
L 422.15258 167.467284 
L 422.201453 167.547147 
L 422.2992 168.289516 
L 422.452801 171.635592 
L 422.711131 183.519274 
L 423.137026 201.098042 
L 423.472156 205.3948 
L 423.723504 207.341664 
L 423.744449 207.318073 
L 423.82125 206.823863 
L 423.960888 204.057596 
L 424.205254 193.765479 
L 424.938351 160.695429 
L 424.952315 160.679211 
L 424.987224 160.798829 
L 425.084971 162.273657 
L 425.315373 170.233887 
L 426.607021 219.022516 
L 426.893278 223.390339 
L 426.914224 223.408411 
L 426.956115 223.29953 
L 427.067825 222.13221 
L 427.60543 211.968172 
L 427.933579 204.171526 
L 428.2338 198.950895 
L 428.275691 199.04553 
L 428.373437 200.150721 
L 429.057662 210.099806 
L 429.260137 211.802672 
L 429.553376 213.766046 
L 429.630176 213.66056 
L 429.825669 213.207973 
L 429.874542 213.298227 
L 429.986252 214.05982 
L 430.328365 217.730134 
L 430.405165 217.362509 
L 430.537821 214.817399 
L 430.838042 203.200894 
L 431.696814 171.543478 
L 431.871361 170.023823 
L 431.885324 170.0356 
L 431.962125 170.354734 
L 432.192527 172.62423 
L 432.450857 176.935687 
L 432.702205 186.069032 
L 433.156027 201.828726 
L 433.23981 202.227417 
L 433.288683 202.118033 
L 433.414357 200.99523 
L 433.679668 196.163591 
L 434.091599 183.708592 
L 434.39182 178.061932 
L 434.657132 176.931234 
L 434.845643 176.284375 
L 434.894516 176.388564 
L 434.98528 177.286306 
L 435.138882 181.593144 
L 435.474012 199.607796 
L 436.486385 251.647422 
L 436.660932 252.066635 
L 436.76566 252.367229 
L 437.02399 253.80487 
L 437.100791 253.477957 
L 437.219483 251.334202 
L 437.421957 242.737584 
L 438.476221 189.856119 
L 438.518113 189.938015 
L 438.629823 190.930906 
L 439.020808 194.451825 
L 439.209319 195.303536 
L 439.376884 197.598845 
L 439.84467 207.41907 
L 439.935435 206.351057 
L 440.068091 200.446803 
L 440.312457 176.964901 
L 440.84308 127.726807 
L 441.087446 121.185698 
L 441.150283 120.966084 
L 441.199156 121.110086 
L 441.32483 122.444893 
L 441.632032 128.771589 
L 442.036982 141.221114 
L 442.490804 156.678803 
L 442.518731 156.595508 
L 442.602514 155.159558 
L 442.791025 146.694595 
L 443.18201 130.743372 
L 443.265793 130.308842 
L 443.314666 130.436687 
L 443.475249 131.792788 
L 443.901144 137.000513 
L 444.110601 145.405192 
L 444.899553 185.179604 
L 444.941445 184.984617 
L 445.046173 182.918774 
L 445.248648 173.342238 
L 445.883999 141.130695 
L 446.247057 134.6555 
L 446.351785 134.19352 
L 446.393676 134.296879 
L 446.491423 135.291836 
L 446.66597 139.823112 
L 447.573614 168.260535 
L 447.622488 168.154339 
L 447.727216 167.170336 
L 447.901763 162.942993 
L 448.195002 148.976879 
L 448.474277 139.919058 
L 448.488241 139.907313 
L 448.516169 140.03129 
L 448.606933 141.72659 
L 448.823371 151.318804 
L 449.277194 169.518017 
L 449.772907 177.797732 
L 450.031237 180.161235 
L 450.08011 180.041246 
L 450.184839 178.956533 
L 450.359386 174.309568 
L 450.645643 159.290617 
L 451.071538 139.312104 
L 451.148338 138.742479 
L 451.197211 138.976397 
L 451.308922 141.107035 
L 451.560269 151.368097 
L 452.035037 168.974855 
L 452.216566 170.768751 
L 452.237512 170.730086 
L 452.314313 170.072578 
L 452.460932 166.333943 
L 452.705298 153.086867 
L 453.466323 108.303383 
L 453.731635 104.127316 
L 453.780508 104.028026 
L 453.829381 104.177337 
L 453.934109 105.423517 
L 454.115638 110.879888 
L 454.415859 128.264383 
L 454.813827 148.280209 
L 454.848736 148.482262 
L 454.897609 148.165418 
L 455.002337 145.111001 
L 455.204812 131.160644 
L 455.79129 88.454208 
L 455.805254 88.466816 
L 455.819218 88.550873 
L 455.896018 90.274591 
L 456.063584 100.588492 
L 456.775736 151.094472 
L 457.075957 156.207784 
L 457.180685 156.620905 
L 457.229558 156.52014 
L 457.341268 155.558218 
L 457.57167 151.086819 
L 458.528188 131.212639 
L 458.570079 131.162524 
L 458.611971 131.264161 
L 458.730663 132.284969 
L 459.254304 139.267485 
L 459.345068 138.735848 
L 459.477724 135.864641 
L 459.701144 125.079974 
L 460.273659 96.363843 
L 460.385369 95.529114 
L 460.42726 95.611954 
L 460.545952 96.616918 
L 460.769372 98.470841 
L 460.804282 98.391433 
L 460.895046 97.407515 
L 461.062612 92.431449 
L 461.670035 68.934875 
L 461.72589 69.25241 
L 461.844582 71.920739 
L 462.109894 84.470841 
L 462.654481 108.427774 
L 462.94772 113.216094 
L 463.010557 113.401987 
L 463.05943 113.281648 
L 463.157176 112.21094 
L 463.31776 107.51944 
L 463.569107 92.411798 
L 464.141622 57.197603 
L 464.190495 56.865135 
L 464.24635 57.207346 
L 464.365042 60.295362 
L 464.61639 74.176374 
L 465.314578 128.135608 
L 465.761418 155.337123 
L 465.970875 159.089452 
L 465.977857 159.086596 
L 466.02673 158.844941 
L 466.159386 156.582093 
L 466.466589 151.063098 
L 466.494516 151.134403 
L 466.578299 152.219085 
L 466.745864 158.15617 
L 467.094958 180.603172 
L 467.681436 215.41025 
L 467.842019 217.358289 
L 467.862965 217.321268 
L 467.95373 216.628976 
L 468.267914 213.734018 
L 468.309806 213.796677 
L 468.421516 214.523819 
L 468.77061 218.949505 
L 469.510689 230.401431 
L 469.769019 242.307675 
L 470.243787 263.211079 
L 470.299642 263.485911 
L 470.348515 263.236028 
L 470.467207 260.905836 
L 470.753465 249.411977 
L 471.270124 231.311676 
L 471.668091 218.155143 
L 472.617627 178.023648 
L 472.92483 175.200046 
L 473.043522 174.879835 
L 473.085413 174.935845 
L 473.18316 175.529846 
L 473.357707 178.343682 
L 473.678873 187.818229 
L 474.251388 209.871841 
L 474.342152 208.841459 
L 474.488772 202.635885 
L 474.802956 177.106962 
L 475.403398 131.999221 
L 475.647764 125.6388 
L 475.661728 125.634847 
L 475.689655 125.747032 
L 475.787402 127.330158 
L 475.989876 135.223359 
L 476.359916 159.452833 
L 476.904503 193.991831 
L 476.988286 194.75923 
L 477.037159 194.528222 
L 477.155851 192.279463 
L 477.490981 180.061462 
L 478.168224 157.577966 
L 478.37768 156.319166 
L 478.559209 155.69636 
L 478.733756 153.896045 
L 479.271361 146.61678 
L 479.334198 146.875231 
L 479.445908 148.787557 
L 479.620455 156.557696 
L 479.913694 182.032321 
L 480.381481 218.344368 
L 480.695665 227.049466 
L 480.89814 228.766839 
L 480.912104 228.753355 
L 480.981922 228.390626 
L 481.12156 226.168242 
L 481.37989 217.673401 
L 481.994295 196.889175 
L 482.008259 196.876332 
L 482.043169 196.98748 
L 482.140915 198.362898 
L 482.34339 205.204977 
L 482.978741 227.678605 
L 483.306889 232.18992 
L 483.635038 235.892055 
L 484.074896 242.200529 
L 484.109806 242.13122 
L 484.207552 241.22359 
L 484.403045 236.719725 
L 485.045378 214.485818 
L 485.478255 200.734897 
L 485.631856 199.82668 
L 485.659784 199.851085 
L 485.75753 200.261427 
L 485.966987 202.309587 
L 486.218334 207.11187 
L 486.651211 217.335321 
L 486.700084 217.079146 
L 486.804812 214.784469 
L 487.028233 203.558621 
L 487.544892 178.714133 
L 488.557265 148.913019 
L 488.606138 149.036227 
L 488.710866 150.198708 
L 488.899377 155.314017 
L 489.450946 171.264207 
L 489.702294 173.42791 
L 489.890805 179.006314 
L 490.330663 192.728942 
L 490.344627 192.705168 
L 490.407464 192.082443 
L 490.547102 187.879879 
L 490.924123 167.077211 
L 491.419837 145.119441 
L 491.587402 143.432861 
L 491.608348 143.463344 
L 491.699112 144.046417 
L 491.957442 147.708503 
L 492.194826 153.732474 
L 492.439192 167.113025 
L 493.200217 213.147545 
L 493.486474 220.412831 
L 493.50742 220.445192 
L 493.549311 220.265969 
L 493.654039 218.484734 
L 493.947278 208.19614 
L 495.280818 164.599405 
L 495.315727 164.647207 
L 495.322709 164.674749 
L 495.413474 165.64301 
L 495.574057 170.481623 
L 496.2513 195.137207 
L 496.3281 195.025608 
L 496.446792 194.846131 
L 496.488684 194.90607 
L 496.593412 195.482341 
L 496.984397 199.368851 
L 497.075162 198.801149 
L 497.207817 195.55219 
L 497.43822 182.893451 
L 497.892042 159.249521 
L 497.954879 158.807693 
L 498.010734 159.096996 
L 498.129426 161.571211 
L 498.792705 180.701287 
L 498.862524 180.543199 
L 499.092926 179.553746 
L 499.155763 179.751764 
L 499.274455 181.200992 
L 499.693368 190.081086 
L 499.791114 188.936443 
L 499.958679 182.41074 
L 500.40552 164.848715 
L 500.447411 164.688989 
L 500.503266 164.923531 
L 500.621958 167.033067 
L 500.831415 175.753596 
L 501.683204 217.670847 
L 501.711132 217.678217 
L 501.746041 217.60203 
L 501.885679 216.703756 
L 502.130045 213.682071 
L 502.325537 207.811785 
L 502.597831 191.432371 
L 503.240164 151.818917 
L 503.344892 150.765802 
L 503.393765 150.974845 
L 503.505476 152.926763 
L 503.840606 164.427272 
L 504.147809 170.733095 
L 504.762214 176.310245 
L 504.790142 176.322609 
L 504.825051 176.245052 
L 504.922798 175.367225 
L 505.076399 171.520622 
L 505.334729 158.185169 
L 505.690805 143.068428 
L 505.718732 142.961042 
L 505.767605 143.230364 
L 505.879316 145.813084 
L 506.207464 160.788915 
L 506.556558 171.357471 
L 506.961507 176.429275 
L 507.094163 177.049973 
L 507.136054 176.979466 
L 507.226819 176.240173 
L 507.387402 172.643793 
L 507.645732 160.796352 
L 508.23221 133.12113 
L 508.288065 132.869297 
L 508.336938 133.077429 
L 508.45563 135.001921 
L 509.035127 149.065917 
L 509.132873 148.432018 
L 509.293456 144.913219 
L 509.593677 132.585932 
L 510.319793 100.613973 
L 510.38263 100.396514 
L 510.438485 100.542203 
L 510.571141 101.849417 
L 511.19951 108.979863 
L 511.744097 112.066933 
L 511.758061 112.062206 
L 511.82788 111.856035 
L 511.93959 110.633902 
L 512.107155 105.743838 
L 512.393412 89.032377 
L 512.75647 72.270259 
L 512.798361 72.034862 
L 512.847234 72.358406 
L 512.951963 75.309501 
L 513.147455 88.544944 
L 513.83168 139.761955 
L 514.041136 142.048676 
L 514.096991 141.958861 
L 514.229647 141.033803 
L 514.690451 135.430136 
L 515.38864 126.6248 
L 515.430531 126.685167 
L 515.549223 127.329397 
L 515.821516 128.972445 
L 515.863408 128.906697 
L 515.968136 128.177588 
L 516.20552 124.418379 
L 516.785016 111.812388 
L 517.24582 100.968288 
L 517.322621 100.712306 
L 517.371494 100.822314 
L 517.490186 101.889844 
L 517.706625 106.294944 
L 518.146483 116.17406 
L 518.181393 116.064377 
L 518.272157 114.683264 
L 518.453686 107.621108 
L 518.963363 87.108532 
L 519.0262 86.864469 
L 519.075074 87.016892 
L 519.207729 88.510614 
L 519.710425 98.06454 
L 520.122356 104.158539 
L 520.24803 104.566339 
L 520.282939 104.518216 
L 520.373704 103.975064 
L 520.520323 101.388511 
L 520.736762 92.658511 
L 521.302294 68.443844 
L 521.32324 68.403674 
L 521.365131 68.550578 
L 521.476841 70.228985 
L 521.811972 80.201259 
L 522.552051 105.521301 
L 523.222312 130.551038 
L 523.410823 131.464056 
L 523.529515 131.807286 
L 523.648207 133.146016 
L 523.829736 138.407839 
L 524.129957 155.103116 
L 525.044583 209.368654 
L 525.631061 226.835366 
L 526.280376 250.886374 
L 526.790054 259.797333 
L 527.090275 277.129617 
L 527.467296 294.910602 
L 527.544097 295.488 
L 527.59297 295.239961 
L 527.711662 292.894665 
L 528.011883 280.920991 
L 528.472688 265.919572 
L 528.731017 255.10146 
L 529.464115 217.525717 
L 529.48506 217.561476 
L 529.561861 218.256796 
L 529.813209 223.521794 
L 529.980774 225.306817 
L 530.008702 225.234409 
L 530.099466 224.172092 
L 530.287977 218.52103 
L 530.783691 203.440316 
L 530.881437 203.026633 
L 530.93031 203.129414 
L 531.07693 204.191581 
L 531.230531 205.086746 
L 531.272422 204.985576 
L 531.363187 203.886716 
L 531.516788 198.650862 
L 531.851919 176.920706 
L 532.333669 151.670045 
L 532.787491 136.814387 
L 532.815418 136.719047 
L 532.864292 136.95672 
L 532.96902 139.291307 
L 533.164513 149.782407 
L 534.051212 206.384057 
L 534.072157 206.316754 
L 534.148958 205.211295 
L 534.316523 198.697471 
L 535.349842 149.673995 
L 535.405697 149.460674 
L 535.461552 149.650088 
L 535.587226 151.356591 
L 536.075958 159.353454 
L 536.103885 159.320745 
L 536.208613 158.788881 
L 536.473925 157.222808 
L 536.515816 157.31117 
L 536.613563 158.201155 
L 536.774146 162.211212 
L 537.067385 176.71976 
L 537.416479 189.999025 
L 537.472334 190.272174 
L 537.521207 190.057458 
L 537.639899 188.07136 
L 538.079758 174.837307 
L 538.90362 152.732137 
L 538.966457 152.625853 
L 539.01533 152.725941 
L 539.120058 153.554292 
L 539.287624 157.062326 
L 539.629736 170.6875 
L 539.915993 177.60244 
L 539.957884 177.69635 
L 540.006757 177.509377 
L 540.132431 175.80443 
L 540.621163 167.668174 
L 540.656073 167.728765 
L 540.746837 168.542172 
L 540.90742 172.604504 
L 541.172732 186.385332 
L 541.668446 210.702741 
L 541.856956 212.96559 
L 541.87092 212.951705 
L 541.933757 212.56292 
L 542.066413 209.98065 
L 542.331724 199.321607 
L 542.701764 187.171056 
L 542.799511 186.623635 
L 542.848384 186.726311 
L 542.974058 187.774491 
L 543.609409 196.393913 
L 544.007376 204.460525 
L 544.454217 212.301749 
L 544.482144 212.350764 
L 544.531017 212.196731 
L 544.635746 210.701672 
L 544.824256 203.844288 
L 545.501499 175.85274 
L 545.592264 175.573529 
L 545.641137 175.646705 
L 546.011176 176.963779 
L 546.164778 177.970492 
L 546.346307 181.041632 
L 546.646528 190.760465 
L 547.449444 220.20108 
L 547.491336 220.061903 
L 547.589082 218.573516 
L 547.784575 211.361487 
L 548.762038 169.319066 
L 548.852803 169.027318 
L 548.901676 169.118826 
L 549.041314 169.963462 
L 549.243788 172.610714 
L 549.432299 178.681957 
L 549.704592 196.574506 
L 550.29107 234.716712 
L 550.591291 242.495763 
L 550.619219 242.578388 
L 550.668092 242.375076 
L 550.77282 240.45492 
L 551.059078 229.433051 
L 551.338353 223.055957 
L 551.673483 218.597444 
L 551.95974 208.754973 
L 552.867385 175.642008 
L 552.881349 175.654813 
L 552.951168 176.042423 
L 553.195534 179.305575 
L 553.593501 186.089946 
L 553.837867 197.27966 
L 554.354526 222.008998 
L 554.36849 221.985836 
L 554.424345 221.257929 
L 554.550019 215.850685 
L 554.801367 192.875801 
L 555.290098 151.772468 
L 555.506537 147.50022 
L 555.527482 147.510269 
L 555.548428 147.585 
L 555.646174 148.70331 
L 555.869595 154.591311 
L 556.51891 179.370477 
L 556.888949 191.337956 
L 556.902913 191.336515 
L 556.923859 191.238885 
L 557.007641 189.656227 
L 557.175207 181.14194 
L 557.663938 155.27525 
L 557.70583 155.115105 
L 557.754703 155.338069 
L 557.873395 157.413124 
L 558.096815 165.922213 
L 558.445909 189.1383 
L 558.878786 214.030888 
L 558.997478 215.349266 
L 559.039369 215.167333 
L 559.144098 213.384036 
L 559.33959 205.564328 
L 559.618866 184.132038 
L 560.317054 125.852759 
L 560.456691 124.056761 
L 560.491601 124.163361 
L 560.589347 125.511143 
L 560.78484 132.045866 
L 561.252626 157.657926 
L 561.867032 185.754602 
L 562.090452 189.703621 
L 562.097434 189.695523 
L 562.153289 189.263202 
L 562.271981 185.993497 
L 562.488419 172.331083 
L 562.93526 145.282034 
L 563.005079 144.76507 
L 563.053952 145.02162 
L 563.179626 147.42268 
L 564.617893 184.957728 
L 564.68073 184.588456 
L 564.799422 181.832546 
L 565.036806 169.878063 
L 565.630266 139.874742 
L 565.90256 135.990262 
L 566.16089 132.725111 
L 566.447147 124.987104 
L 566.852096 108.034729 
L 567.641049 70.225762 
L 567.976179 66.427158 
L 568.178654 65.708233 
L 568.192617 65.714302 
L 568.2764 65.911764 
L 568.430001 66.999441 
L 568.653422 70.398355 
L 569.20499 82.808994 
L 569.309719 81.737091 
L 569.470302 75.778771 
L 569.979979 53.568 
L 570.007907 53.693245 
L 570.091689 55.427748 
L 570.252273 64.565561 
L 570.587403 100.470371 
L 570.971407 132.05835 
L 571.264646 140.275907 
L 571.585812 143.964727 
L 571.627704 144.025617 
L 571.676577 143.904527 
L 571.781305 142.840652 
L 571.962834 138.217843 
L 572.458548 123.364464 
L 572.493457 123.520963 
L 572.591203 125.414055 
L 572.779714 134.725321 
L 573.345247 164.63059 
L 573.422047 165.036775 
L 573.477902 164.867906 
L 573.610558 163.335297 
L 573.861906 157.391208 
L 574.211 143.096763 
L 574.923152 112.690305 
L 574.95108 112.629082 
L 574.999953 112.819413 
L 575.125627 114.736035 
L 575.418866 119.663777 
L 575.453775 119.519092 
L 575.551522 117.784642 
L 575.760978 108.711539 
L 576.10309 96.465823 
L 576.124036 96.413348 
L 576.165927 96.610716 
L 576.270655 98.805789 
L 576.494076 109.549981 
L 577.031681 134.582819 
L 577.303974 139.207424 
L 577.345865 139.285645 
L 577.394739 139.127188 
L 577.506449 137.706554 
L 577.694959 131.744657 
L 577.974235 114.542393 
L 578.497876 83.197423 
L 578.567695 82.603054 
L 578.62355 82.953321 
L 578.742242 85.944546 
L 579.021517 100.345756 
L 579.705742 146.460361 
L 580.29222 186.623321 
L 580.445821 189.007039 
L 580.473749 188.945054 
L 580.557531 187.976989 
L 580.794915 181.700877 
L 581.088154 176.519693 
L 581.144009 176.397075 
L 581.199865 176.516553 
L 581.33252 177.575351 
L 581.548959 181.333018 
L 581.800306 190.158819 
L 583.126864 246.037848 
L 583.210647 246.671062 
L 583.25952 246.464035 
L 583.37123 244.448523 
L 583.59465 235.253582 
L 584.041491 218.001593 
L 584.062436 217.954917 
L 584.104328 218.158478 
L 584.209056 220.371516 
L 584.432476 231.352149 
L 584.844407 249.582127 
L 584.92819 250.149038 
L 584.977063 249.964144 
L 585.095755 248.249377 
L 585.444849 238.711203 
L 585.884708 222.889833 
L 586.324566 193.337137 
L 586.848207 165.462836 
L 587.036718 162.671607 
L 587.050682 162.688543 
L 587.120501 163.179883 
L 587.295048 166.58024 
L 587.762834 175.606398 
L 587.825671 175.728192 
L 587.881526 175.641835 
L 588.111928 174.950201 
L 588.174765 175.084534 
L 588.307421 176.090702 
L 588.593678 178.611293 
L 588.635569 178.50406 
L 588.726334 177.442208 
L 588.886917 172.214215 
L 589.166192 153.857802 
L 589.717761 119.184785 
L 589.836453 117.649052 
L 589.878345 117.808643 
L 589.976091 119.568914 
L 590.171584 128.198608 
L 590.562569 157.852201 
L 591.156029 199.461279 
L 591.281703 201.262539 
L 591.323594 201.049931 
L 591.428322 198.900294 
L 591.658725 188.432565 
L 592.440695 151.07136 
L 592.573351 149.776685 
L 592.615242 149.897666 
L 592.719971 151.293187 
L 592.957355 158.48066 
L 593.327394 167.552783 
L 593.467032 168.128777 
L 593.49496 168.105579 
L 593.627615 167.705389 
L 593.739326 167.467284 
L 593.788199 167.547147 
L 593.885945 168.289516 
L 594.039547 171.635592 
L 594.297876 183.519274 
L 594.723771 201.098042 
L 595.058901 205.3948 
L 595.310249 207.341664 
L 595.331195 207.318073 
L 595.407995 206.823863 
L 595.547633 204.057596 
L 595.791999 193.765479 
L 596.525097 160.695429 
L 596.53906 160.679211 
L 596.57397 160.798829 
L 596.671716 162.273657 
L 596.902118 170.233887 
L 598.193767 219.022516 
L 598.480024 223.390339 
L 598.500969 223.408411 
L 598.542861 223.29953 
L 598.654571 222.13221 
L 599.192176 211.968172 
L 599.520324 204.171526 
L 599.820545 198.950895 
L 599.862437 199.04553 
L 599.960183 200.150721 
L 600.644407 210.099806 
L 600.846882 211.802672 
L 601.140121 213.766046 
L 601.216922 213.66056 
L 601.412414 213.207973 
L 601.461288 213.298227 
L 601.572998 214.05982 
L 601.91511 217.730134 
L 601.991911 217.362509 
L 602.124567 214.817399 
L 602.424787 203.200894 
L 603.283559 171.543478 
L 603.458106 170.023823 
L 603.47207 170.0356 
L 603.548871 170.354734 
L 603.779273 172.62423 
L 604.037602 176.935687 
L 604.28895 186.069032 
L 604.742772 201.828726 
L 604.826555 202.227417 
L 604.875428 202.118033 
L 605.001102 200.99523 
L 605.266414 196.163591 
L 605.678345 183.708592 
L 605.978566 178.061932 
L 606.243877 176.931234 
L 606.432388 176.284375 
L 606.481261 176.388564 
L 606.572026 177.286306 
L 606.725627 181.593144 
L 607.060757 199.607796 
L 608.07313 251.647422 
L 608.247677 252.066635 
L 608.352406 252.367229 
L 608.610735 253.80487 
L 608.687536 253.477957 
L 608.806228 251.334202 
L 609.008703 242.737584 
L 610.062967 189.856119 
L 610.104858 189.938015 
L 610.216568 190.930906 
L 610.607554 194.451825 
L 610.796065 195.303536 
L 610.96363 197.598845 
L 611.431416 207.41907 
L 611.52218 206.351057 
L 611.654836 200.446803 
L 611.899202 176.964901 
L 612.429825 127.726807 
L 612.674191 121.185698 
L 612.737028 120.966084 
L 612.785901 121.110086 
L 612.911575 122.444893 
L 613.218778 128.771589 
L 613.623727 141.221114 
L 614.077549 156.678803 
L 614.105477 156.595508 
L 614.18926 155.159558 
L 614.37777 146.694595 
L 614.768756 130.743372 
L 614.852538 130.308842 
L 614.901412 130.436687 
L 615.061995 131.792788 
L 615.48789 137.000513 
L 615.697346 145.405192 
L 616.486299 185.179604 
L 616.52819 184.984617 
L 616.632918 182.918774 
L 616.835393 173.342238 
L 617.470744 141.130695 
L 617.833802 134.6555 
L 617.93853 134.19352 
L 617.980422 134.296879 
L 618.078168 135.291836 
L 618.252715 139.823112 
L 619.16036 168.260535 
L 619.209233 168.154339 
L 619.313961 167.170336 
L 619.488508 162.942993 
L 619.781747 148.976879 
L 620.061023 139.919058 
L 620.074987 139.907313 
L 620.102914 140.03129 
L 620.193679 141.72659 
L 620.410117 151.318804 
L 620.863939 169.518017 
L 621.359653 177.797732 
L 621.617983 180.161235 
L 621.666856 180.041246 
L 621.771584 178.956533 
L 621.946131 174.309568 
L 622.232388 159.290617 
L 622.658283 139.312104 
L 622.735084 138.742479 
L 622.783957 138.976397 
L 622.895667 141.107035 
L 623.147015 151.368097 
L 623.621783 168.974855 
L 623.803312 170.768751 
L 623.824257 170.730086 
L 623.901058 170.072578 
L 624.047678 166.333943 
L 624.292044 153.086867 
L 625.053069 108.303383 
L 625.31838 104.127316 
L 625.367254 104.028026 
L 625.416127 104.177337 
L 625.520855 105.423517 
L 625.702384 110.879888 
L 626.002605 128.264383 
L 626.400572 148.280209 
L 626.435482 148.482262 
L 626.484355 148.165418 
L 626.589083 145.111001 
L 626.791558 131.160644 
L 627.378036 88.454208 
L 627.391999 88.466816 
L 627.405963 88.550873 
L 627.482764 90.274591 
L 627.650329 100.588492 
L 628.362481 151.094472 
L 628.662702 156.207784 
L 628.76743 156.620905 
L 628.816303 156.52014 
L 628.928014 155.558218 
L 629.158416 151.086819 
L 630.114934 131.212639 
L 630.156825 131.162524 
L 630.198716 131.264161 
L 630.317408 132.284969 
L 630.841049 139.267485 
L 630.931814 138.735848 
L 631.06447 135.864641 
L 631.28789 125.079974 
L 631.860404 96.363843 
L 631.972114 95.529114 
L 632.014006 95.611954 
L 632.132698 96.616918 
L 632.356118 98.470841 
L 632.391027 98.391433 
L 632.481792 97.407515 
L 632.649357 92.431449 
L 633.256781 68.934875 
L 633.312636 69.25241 
L 633.431328 71.920739 
L 633.696639 84.470841 
L 634.241226 108.427774 
L 634.534465 113.216094 
L 634.597302 113.401987 
L 634.646175 113.281648 
L 634.743922 112.21094 
L 634.904505 107.51944 
L 635.155853 92.411798 
L 635.728367 57.197603 
L 635.77724 56.865135 
L 635.833095 57.207346 
L 635.951787 60.295362 
L 636.203135 74.176374 
L 636.901323 128.135608 
L 637.348164 155.337123 
L 637.55762 159.089452 
L 637.564602 159.086596 
L 637.613475 158.844941 
L 637.746131 156.582093 
L 638.053334 151.063098 
L 638.081262 151.134403 
L 638.165044 152.219085 
L 638.332609 158.15617 
L 638.681704 180.603172 
L 639.268182 215.41025 
L 639.428765 217.358289 
L 639.449711 217.321268 
L 639.540475 216.628976 
L 639.85466 213.734018 
L 639.896551 213.796677 
L 640.008261 214.523819 
L 640.357355 218.949505 
L 641.097435 230.401431 
L 641.355765 242.307675 
L 641.830533 263.211079 
L 641.886388 263.485911 
L 641.935261 263.236028 
L 642.053953 260.905836 
L 642.34021 249.411977 
L 642.856869 231.311676 
L 643.254837 218.155143 
L 644.204373 178.023648 
L 644.511575 175.200046 
L 644.630267 174.879835 
L 644.672159 174.935845 
L 644.769905 175.529846 
L 644.944452 178.343682 
L 645.265619 187.818229 
L 645.838133 209.871841 
L 645.928898 208.841459 
L 646.075517 202.635885 
L 646.389702 177.106962 
L 646.990144 131.999221 
L 647.23451 125.6388 
L 647.248473 125.634847 
L 647.276401 125.747032 
L 647.374147 127.330158 
L 647.576622 135.223359 
L 647.946662 159.452833 
L 648.491248 193.991831 
L 648.575031 194.75923 
L 648.623904 194.528222 
L 648.742596 192.279463 
L 649.077727 180.061462 
L 649.754969 157.577966 
L 649.964426 156.319166 
L 650.145955 155.69636 
L 650.320502 153.896045 
L 650.858107 146.61678 
L 650.920944 146.875231 
L 651.032654 148.787557 
L 651.207201 156.557696 
L 651.50044 182.032321 
L 651.968226 218.344368 
L 652.282411 227.049466 
L 652.484885 228.766839 
L 652.498849 228.753355 
L 652.568668 228.390626 
L 652.708306 226.168242 
L 652.966635 217.673401 
L 653.581041 196.889175 
L 653.595005 196.876332 
L 653.629914 196.98748 
L 653.72766 198.362898 
L 653.930135 205.204977 
L 654.565486 227.678605 
L 654.893635 232.18992 
L 655.221783 235.892055 
L 655.661642 242.200529 
L 655.696551 242.13122 
L 655.794298 241.22359 
L 655.98979 236.719725 
L 656.632124 214.485818 
L 657.065 200.734897 
L 657.218602 199.82668 
L 657.246529 199.851085 
L 657.344276 200.261427 
L 657.553732 202.309587 
L 657.80508 207.11187 
L 658.237957 217.335321 
L 658.28683 217.079146 
L 658.391558 214.784469 
L 658.614978 203.558621 
L 659.131637 178.714133 
L 660.14401 148.913019 
L 660.192884 149.036227 
L 660.297612 150.198708 
L 660.486123 155.314017 
L 661.037691 171.264207 
L 661.289039 173.42791 
L 661.47755 179.006314 
L 661.917409 192.728942 
L 661.931372 192.705168 
L 661.994209 192.082443 
L 662.133847 187.879879 
L 662.510869 167.077211 
L 663.006582 145.119441 
L 663.174147 143.432861 
L 663.195093 143.463344 
L 663.285858 144.046417 
L 663.544187 147.708503 
L 663.781571 153.732474 
L 664.025937 167.113025 
L 664.786962 213.147545 
L 665.07322 220.412831 
L 665.094165 220.445192 
L 665.136056 220.265969 
L 665.240785 218.484734 
L 665.534024 208.19614 
L 666.867563 164.599405 
L 666.902473 164.647207 
L 666.909455 164.674749 
L 667.000219 165.64301 
L 667.160802 170.481623 
L 667.838045 195.137207 
L 667.914846 195.025608 
L 668.033538 194.846131 
L 668.075429 194.90607 
L 668.180157 195.482341 
L 668.571143 199.368851 
L 668.661907 198.801149 
L 668.794563 195.55219 
L 669.024965 182.893451 
L 669.478787 159.249521 
L 669.541624 158.807693 
L 669.597479 159.096996 
L 669.716171 161.571211 
L 670.37945 180.701287 
L 670.449269 180.543199 
L 670.679671 179.553746 
L 670.742508 179.751764 
L 670.8612 181.200992 
L 671.280113 190.081086 
L 671.377859 188.936443 
L 671.545425 182.41074 
L 671.992265 164.848715 
L 672.034156 164.688989 
L 672.090012 164.923531 
L 672.208704 167.033067 
L 672.41816 175.753596 
L 673.26995 217.670847 
L 673.297877 217.678217 
L 673.332787 217.60203 
L 673.472424 216.703756 
L 673.71679 213.682071 
L 673.912283 207.811785 
L 674.184576 191.432371 
L 674.826909 151.818917 
L 674.931638 150.765802 
L 674.980511 150.974845 
L 675.092221 152.926763 
L 675.427351 164.427272 
L 675.734554 170.733095 
L 676.34896 176.310245 
L 676.376887 176.322609 
L 676.411797 176.245052 
L 676.509543 175.367225 
L 676.663145 171.520622 
L 676.921474 158.185169 
L 677.27755 143.068428 
L 677.305478 142.961042 
L 677.354351 143.230364 
L 677.466061 145.813084 
L 677.79421 160.788915 
L 678.143304 171.357471 
L 678.548253 176.429275 
L 678.680909 177.049973 
L 678.7228 176.979466 
L 678.813564 176.240173 
L 678.974148 172.643793 
L 679.232477 160.796352 
L 679.818955 133.12113 
L 679.874811 132.869297 
L 679.923684 133.077429 
L 680.042376 135.001921 
L 680.621872 149.065917 
L 680.719618 148.432018 
L 680.880202 144.913219 
L 681.180423 132.585932 
L 681.906538 100.613973 
L 681.969375 100.396514 
L 682.02523 100.542203 
L 682.157886 101.849417 
L 682.786256 108.979863 
L 683.330842 112.066933 
L 683.344806 112.062206 
L 683.414625 111.856035 
L 683.526335 110.633902 
L 683.6939 105.743838 
L 683.980157 89.032377 
L 684.343215 72.270259 
L 684.385107 72.034862 
L 684.43398 72.358406 
L 684.538708 75.309501 
L 684.734201 88.544944 
L 685.418425 139.761955 
L 685.627882 142.048676 
L 685.683737 141.958861 
L 685.816393 141.033803 
L 686.277197 135.430136 
L 686.975385 126.6248 
L 687.017276 126.685167 
L 687.135968 127.329397 
L 687.408262 128.972445 
L 687.450153 128.906697 
L 687.554881 128.177588 
L 687.792265 124.418379 
L 688.371762 111.812388 
L 688.832566 100.968288 
L 688.909367 100.712306 
L 688.95824 100.822314 
L 689.076932 101.889844 
L 689.29337 106.294944 
L 689.733229 116.17406 
L 689.768138 116.064377 
L 689.858903 114.683264 
L 690.040432 107.621108 
L 690.550109 87.108532 
L 690.612946 86.864469 
L 690.661819 87.016892 
L 690.794475 88.510614 
L 691.29717 98.06454 
L 691.709101 104.158539 
L 691.834775 104.566339 
L 691.869685 104.518216 
L 691.960449 103.975064 
L 692.107069 101.388511 
L 692.323507 92.658511 
L 692.88904 68.443844 
L 692.909985 68.403674 
L 692.951877 68.550578 
L 693.063587 70.228985 
L 693.398717 80.201259 
L 694.138797 105.521301 
L 694.809057 130.551038 
L 694.997568 131.464056 
L 695.11626 131.807286 
L 695.234952 133.146016 
L 695.416481 138.407839 
L 695.716702 155.103116 
L 696.631329 209.368654 
L 697.217807 226.835366 
L 697.867122 250.886374 
L 698.376799 259.797333 
L 698.67702 277.129617 
L 699.054042 294.910602 
L 699.130843 295.488 
L 699.179716 295.239961 
L 699.298408 292.894665 
L 699.598629 280.920991 
L 700.059433 265.919572 
L 700.317763 255.10146 
L 701.05086 217.525717 
L 701.071806 217.561476 
L 701.148607 218.256796 
L 701.399954 223.521794 
L 701.56752 225.306817 
L 701.595447 225.234409 
L 701.686212 224.172092 
L 701.874722 218.52103 
L 702.370436 203.440316 
L 702.468182 203.026633 
L 702.517056 203.129414 
L 702.663675 204.191581 
L 702.817277 205.086746 
L 702.859168 204.985576 
L 702.949932 203.886716 
L 703.103534 198.650862 
L 703.438664 176.920706 
L 703.920414 151.670045 
L 704.374236 136.814387 
L 704.402164 136.719047 
L 704.451037 136.95672 
L 704.555765 139.291307 
L 704.751258 149.782407 
L 705.637957 206.384057 
L 705.658903 206.316754 
L 705.735703 205.211295 
L 705.903269 198.697471 
L 706.936587 149.673995 
L 706.992442 149.460674 
L 707.048297 149.650088 
L 707.173971 151.356591 
L 707.662703 159.353454 
L 707.690631 159.320745 
L 707.795359 158.788881 
L 708.06067 157.222808 
L 708.102562 157.31117 
L 708.200308 158.201155 
L 708.360891 162.211212 
L 708.65413 176.71976 
L 709.003225 189.999025 
L 709.05908 190.272174 
L 709.107953 190.057458 
L 709.226645 188.07136 
L 709.666503 174.837307 
L 710.490366 152.732137 
L 710.553202 152.625853 
L 710.602076 152.725941 
L 710.706804 153.554292 
L 710.874369 157.062326 
L 711.216481 170.6875 
L 711.502738 177.60244 
L 711.54463 177.69635 
L 711.593503 177.509377 
L 711.719177 175.80443 
L 712.207909 167.668174 
L 712.242818 167.728765 
L 712.333583 168.542172 
L 712.494166 172.604504 
L 712.759477 186.385332 
L 713.255191 210.702741 
L 713.443702 212.96559 
L 713.457666 212.951705 
L 713.520503 212.56292 
L 713.653158 209.98065 
L 713.91847 199.321607 
L 714.28851 187.171056 
L 714.386256 186.623635 
L 714.435129 186.726311 
L 714.560803 187.774491 
L 715.196154 196.393913 
L 715.594122 204.460525 
L 716.040962 212.301749 
L 716.06889 212.350764 
L 716.117763 212.196731 
L 716.222491 210.701672 
L 716.411002 203.844288 
L 717.088245 175.85274 
L 717.179009 175.573529 
L 717.227882 175.646705 
L 717.597922 176.963779 
L 717.751523 177.970492 
L 717.933052 181.041632 
L 718.233273 190.760465 
L 719.03619 220.20108 
L 719.078081 220.061903 
L 719.175827 218.573516 
L 719.37132 211.361487 
L 720.348784 169.319066 
L 720.439548 169.027318 
L 720.488421 169.118826 
L 720.628059 169.963462 
L 720.830534 172.610714 
L 721.019044 178.681957 
L 721.291338 196.574506 
L 721.877816 234.716712 
L 722.178037 242.495763 
L 722.205964 242.578388 
L 722.254838 242.375076 
L 722.359566 240.45492 
L 722.645823 229.433051 
L 722.925098 223.055957 
L 723.260229 218.597444 
L 723.546486 208.754973 
L 724.454131 175.642008 
L 724.468094 175.654813 
L 724.537913 176.042423 
L 724.782279 179.305575 
L 725.180246 186.089946 
L 725.424612 197.27966 
L 725.941272 222.008998 
L 725.955235 221.985836 
L 726.01109 221.257929 
L 726.136764 215.850685 
L 726.388112 192.875801 
L 726.876844 151.772468 
L 727.093282 147.50022 
L 727.114228 147.510269 
L 727.135174 147.585 
L 727.23292 148.70331 
L 727.45634 154.591311 
L 728.105655 179.370477 
L 728.475695 191.337956 
L 728.489659 191.336515 
L 728.510604 191.238885 
L 728.594387 189.656227 
L 728.761952 181.14194 
L 729.250684 155.27525 
L 729.292575 155.115105 
L 729.341448 155.338069 
L 729.46014 157.413124 
L 729.683561 165.922213 
L 730.032655 189.1383 
L 730.465531 214.030888 
L 730.584223 215.349266 
L 730.626115 215.167333 
L 730.730843 213.384036 
L 730.926336 205.564328 
L 731.205611 184.132038 
L 731.903799 125.852759 
L 732.043437 124.056761 
L 732.078346 124.163361 
L 732.176093 125.511143 
L 732.371585 132.045866 
L 732.839372 157.657926 
L 733.453777 185.754602 
L 733.677197 189.703621 
L 733.684179 189.695523 
L 733.740034 189.263202 
L 733.858726 185.993497 
L 734.075165 172.331083 
L 734.522005 145.282034 
L 734.591824 144.76507 
L 734.640697 145.02162 
L 734.766371 147.42268 
L 736.204639 184.957728 
L 736.267476 184.588456 
L 736.386168 181.832546 
L 736.623552 169.878063 
L 737.217012 139.874742 
L 737.489305 135.990262 
L 737.747635 132.725111 
L 738.033892 124.987104 
L 738.438841 108.034729 
L 739.227794 70.225762 
L 739.562924 66.427158 
L 739.765399 65.708233 
L 739.779363 65.714302 
L 739.863145 65.911764 
L 740.016747 66.999441 
L 740.240167 70.398355 
L 740.791736 82.808994 
L 740.896464 81.737091 
L 741.057047 75.778771 
L 741.566725 53.568 
L 741.594652 53.693245 
L 741.678435 55.427748 
L 741.839018 64.565561 
L 742.174149 100.470371 
L 742.558152 132.05835 
L 742.851391 140.275907 
L 743.172558 143.964727 
L 743.214449 144.025617 
L 743.263322 143.904527 
L 743.36805 142.840652 
L 743.549579 138.217843 
L 744.045293 123.364464 
L 744.080202 123.520963 
L 744.177949 125.414055 
L 744.36646 134.725321 
L 744.931992 164.63059 
L 745.008793 165.036775 
L 745.064648 164.867906 
L 745.197304 163.335297 
L 745.448651 157.391208 
L 745.797746 143.096763 
L 746.509898 112.690305 
L 746.537825 112.629082 
L 746.586698 112.819413 
L 746.712372 114.736035 
L 747.005611 119.663777 
L 747.040521 119.519092 
L 747.138267 117.784642 
L 747.347723 108.711539 
L 747.689836 96.465823 
L 747.710781 96.413348 
L 747.752673 96.610716 
L 747.857401 98.805789 
L 748.080821 109.549981 
L 748.618426 134.582819 
L 748.89072 139.207424 
L 748.932611 139.285645 
L 748.981484 139.127188 
L 749.093194 137.706554 
L 749.281705 131.744657 
L 749.56098 114.542393 
L 750.084621 83.197423 
L 750.15444 82.603054 
L 750.210295 82.953321 
L 750.328987 85.944546 
L 750.608263 100.345756 
L 751.292487 146.460361 
L 751.878965 186.623321 
L 752.032567 189.007039 
L 752.060494 188.945054 
L 752.144277 187.976989 
L 752.381661 181.700877 
L 752.6749 176.519693 
L 752.730755 176.397075 
L 752.78661 176.516553 
L 752.919266 177.575351 
L 753.135704 181.333018 
L 753.387052 190.158819 
L 754.71361 246.037848 
L 754.797392 246.671062 
L 754.846265 246.464035 
L 754.957975 244.448523 
L 755.181396 235.253582 
L 755.628236 218.001593 
L 755.649182 217.954917 
L 755.691073 218.158478 
L 755.795801 220.371516 
L 756.019222 231.352149 
L 756.431153 249.582127 
L 756.514935 250.149038 
L 756.563808 249.964144 
L 756.6825 248.249377 
L 757.031595 238.711203 
L 757.471453 222.889833 
L 757.911312 193.337137 
L 758.434953 165.462836 
L 758.623464 162.671607 
L 758.637428 162.688543 
L 758.707246 163.179883 
L 758.881793 166.58024 
L 759.34958 175.606398 
L 759.412417 175.728192 
L 759.468272 175.641835 
L 759.698674 174.950201 
L 759.761511 175.084534 
L 759.894166 176.090702 
L 760.180424 178.611293 
L 760.222315 178.50406 
L 760.313079 177.442208 
L 760.473663 172.214215 
L 760.752938 153.857802 
L 761.304507 119.184785 
L 761.423199 117.649052 
L 761.46509 117.808643 
L 761.562836 119.568914 
L 761.758329 128.198608 
L 762.149314 157.852201 
L 762.742774 199.461279 
L 762.868448 201.262539 
L 762.91034 201.049931 
L 763.015068 198.900294 
L 763.24547 188.432565 
L 764.027441 151.07136 
L 764.160097 149.776685 
L 764.201988 149.897666 
L 764.306716 151.293187 
L 764.5441 158.48066 
L 764.91414 167.552783 
L 765.053778 168.128777 
L 765.081705 168.105579 
L 765.214361 167.705389 
L 765.326071 167.467284 
L 765.374944 167.547147 
L 765.472691 168.289516 
L 765.626292 171.635592 
L 765.884622 183.519274 
L 766.310516 201.098042 
L 766.645647 205.3948 
L 766.896995 207.341664 
L 766.91794 207.318073 
L 766.994741 206.823863 
L 767.134379 204.057596 
L 767.378745 193.765479 
L 768.111842 160.695429 
L 768.125806 160.679211 
L 768.160715 160.798829 
L 768.258462 162.273657 
L 768.488864 170.233887 
L 769.780512 219.022516 
L 770.066769 223.390339 
L 770.087715 223.408411 
L 770.129606 223.29953 
L 770.241316 222.13221 
L 770.778921 211.968172 
L 771.10707 204.171526 
L 771.407291 198.950895 
L 771.449182 199.04553 
L 771.546928 200.150721 
L 772.231153 210.099806 
L 772.433627 211.802672 
L 772.726867 213.766046 
L 772.803667 213.66056 
L 772.99916 213.207973 
L 773.048033 213.298227 
L 773.159743 214.05982 
L 773.501855 217.730134 
L 773.578656 217.362509 
L 773.711312 214.817399 
L 774.011533 203.200894 
L 774.870304 171.543478 
L 775.044852 170.023823 
L 775.058815 170.0356 
L 775.135616 170.354734 
L 775.366018 172.62423 
L 775.624348 176.935687 
L 775.875696 186.069032 
L 776.329518 201.828726 
L 776.413301 202.227417 
L 776.462174 202.118033 
L 776.587848 200.99523 
L 776.853159 196.163591 
L 777.26509 183.708592 
L 777.565311 178.061932 
L 777.830623 176.931234 
L 778.019134 176.284375 
L 778.068007 176.388564 
L 778.158771 177.286306 
L 778.312373 181.593144 
L 778.647503 199.607796 
L 779.659876 251.647422 
L 779.834423 252.066635 
L 779.939151 252.367229 
L 780.197481 253.80487 
L 780.274282 253.477957 
L 780.392974 251.334202 
L 780.595448 242.737584 
L 781.649712 189.856119 
L 781.691604 189.938015 
L 781.803314 190.930906 
L 782.194299 194.451825 
L 782.38281 195.303536 
L 782.550375 197.598845 
L 783.018161 207.41907 
L 783.108926 206.351057 
L 783.241582 200.446803 
L 783.485948 176.964901 
L 784.016571 127.726807 
L 784.260937 121.185698 
L 784.323773 120.966084 
L 784.372647 121.110086 
L 784.498321 122.444893 
L 784.805523 128.771589 
L 785.210473 141.221114 
L 785.664295 156.678803 
L 785.692222 156.595508 
L 785.776005 155.159558 
L 785.964516 146.694595 
L 786.355501 130.743372 
L 786.439284 130.308842 
L 786.488157 130.436687 
L 786.64874 131.792788 
L 787.074635 137.000513 
L 787.284092 145.405192 
L 788.073044 185.179604 
L 788.114936 184.984617 
L 788.219664 182.918774 
L 788.422139 173.342238 
L 789.05749 141.130695 
L 789.420548 134.6555 
L 789.525276 134.19352 
L 789.567167 134.296879 
L 789.664914 135.291836 
L 789.839461 139.823112 
L 790.747105 168.260535 
L 790.795979 168.154339 
L 790.900707 167.170336 
L 791.075254 162.942993 
L 791.368493 148.976879 
L 791.647768 139.919058 
L 791.661732 139.907313 
L 791.68966 140.03129 
L 791.780424 141.72659 
L 791.996862 151.318804 
L 792.450685 169.518017 
L 792.946398 177.797732 
L 793.204728 180.161235 
L 793.253601 180.041246 
L 793.358329 178.956533 
L 793.532877 174.309568 
L 793.819134 159.290617 
L 794.245029 139.312104 
L 794.321829 138.742479 
L 794.370702 138.976397 
L 794.482413 141.107035 
L 794.73376 151.368097 
L 795.208528 168.974855 
L 795.390057 170.768751 
L 795.411003 170.730086 
L 795.487804 170.072578 
L 795.634423 166.333943 
L 795.878789 153.086867 
L 796.639814 108.303383 
L 796.905126 104.127316 
L 796.953999 104.028026 
L 797.002872 104.177337 
L 797.1076 105.423517 
L 797.289129 110.879888 
L 797.58935 128.264383 
L 797.987318 148.280209 
L 798.022227 148.482262 
L 798.0711 148.165418 
L 798.175828 145.111001 
L 798.378303 131.160644 
L 798.964781 88.454208 
L 798.978745 88.466816 
L 798.992709 88.550873 
L 799.069509 90.274591 
L 799.237075 100.588492 
L 799.949227 151.094472 
L 800.249448 156.207784 
L 800.354176 156.620905 
L 800.403049 156.52014 
L 800.514759 155.558218 
L 800.745161 151.086819 
L 801.701679 131.212639 
L 801.74357 131.162524 
L 801.785462 131.264161 
L 801.904154 132.284969 
L 802.427795 139.267485 
L 802.518559 138.735848 
L 802.651215 135.864641 
L 802.874635 125.079974 
L 803.44715 96.363843 
L 803.55886 95.529114 
L 803.600751 95.611954 
L 803.719443 96.616918 
L 803.942863 98.470841 
L 803.977773 98.391433 
L 804.068537 97.407515 
L 804.236102 92.431449 
L 804.843526 68.934875 
L 804.899381 69.25241 
L 805.018073 71.920739 
L 805.283385 84.470841 
L 805.827972 108.427774 
L 806.121211 113.216094 
L 806.184048 113.401987 
L 806.232921 113.281648 
L 806.330667 112.21094 
L 806.491251 107.51944 
L 806.742598 92.411798 
L 807.315113 57.197603 
L 807.363986 56.865135 
L 807.419841 57.207346 
L 807.538533 60.295362 
L 807.789881 74.176374 
L 808.488069 128.135608 
L 808.934909 155.337123 
L 809.144366 159.089452 
L 809.151348 159.086596 
L 809.200221 158.844941 
L 809.332877 156.582093 
L 809.64008 151.063098 
L 809.668007 151.134403 
L 809.75179 152.219085 
L 809.919355 158.15617 
L 810.268449 180.603172 
L 810.854927 215.41025 
L 811.01551 217.358289 
L 811.036456 217.321268 
L 811.127221 216.628976 
L 811.441405 213.734018 
L 811.483297 213.796677 
L 811.595007 214.523819 
L 811.944101 218.949505 
L 812.68418 230.401431 
L 812.94251 242.307675 
L 813.417278 263.211079 
L 813.473133 263.485911 
L 813.522006 263.236028 
L 813.640698 260.905836 
L 813.926955 249.411977 
L 814.443615 231.311676 
L 814.841582 218.155143 
L 815.791118 178.023648 
L 816.098321 175.200046 
L 816.217013 174.879835 
L 816.258904 174.935845 
L 816.356651 175.529846 
L 816.531198 178.343682 
L 816.852364 187.818229 
L 817.424879 209.871841 
L 817.515643 208.841459 
L 817.662263 202.635885 
L 817.976447 177.106962 
L 818.576889 131.999221 
L 818.821255 125.6388 
L 818.835219 125.634847 
L 818.863146 125.747032 
L 818.960893 127.330158 
L 819.163367 135.223359 
L 819.533407 159.452833 
L 820.077994 193.991831 
L 820.161777 194.75923 
L 820.21065 194.528222 
L 820.329342 192.279463 
L 820.664472 180.061462 
L 821.341715 157.577966 
L 821.551171 156.319166 
L 821.7327 155.69636 
L 821.907247 153.896045 
L 822.444852 146.61678 
L 822.507689 146.875231 
L 822.619399 148.787557 
L 822.793946 156.557696 
L 823.087185 182.032321 
L 823.554971 218.344368 
L 823.869156 227.049466 
L 824.071631 228.766839 
L 824.085595 228.753355 
L 824.155413 228.390626 
L 824.295051 226.168242 
L 824.553381 217.673401 
L 825.167786 196.889175 
L 825.18175 196.876332 
L 825.21666 196.98748 
L 825.314406 198.362898 
L 825.51688 205.204977 
L 826.152232 227.678605 
L 826.48038 232.18992 
L 826.808529 235.892055 
L 827.248387 242.200529 
L 827.283297 242.13122 
L 827.381043 241.22359 
L 827.576536 236.719725 
L 828.218869 214.485818 
L 828.651746 200.734897 
L 828.805347 199.82668 
L 828.833275 199.851085 
L 828.931021 200.261427 
L 829.140478 202.309587 
L 829.391825 207.11187 
L 829.824702 217.335321 
L 829.873575 217.079146 
L 829.978303 214.784469 
L 830.201724 203.558621 
L 830.718383 178.714133 
L 831.730756 148.913019 
L 831.779629 149.036227 
L 831.884357 150.198708 
L 832.072868 155.314017 
L 832.624437 171.264207 
L 832.875785 173.42791 
L 833.064296 179.006314 
L 833.504154 192.728942 
L 833.518118 192.705168 
L 833.580955 192.082443 
L 833.720592 187.879879 
L 834.097614 167.077211 
L 834.593328 145.119441 
L 834.760893 143.432861 
L 834.781839 143.463344 
L 834.872603 144.046417 
L 835.130933 147.708503 
L 835.368317 153.732474 
L 835.612683 167.113025 
L 836.373708 213.147545 
L 836.659965 220.412831 
L 836.680911 220.445192 
L 836.722802 220.265969 
L 836.82753 218.484734 
L 837.120769 208.19614 
L 838.454309 164.599405 
L 838.489218 164.647207 
L 838.4962 164.674749 
L 838.586965 165.64301 
L 838.747548 170.481623 
L 839.424791 195.137207 
L 839.501591 195.025608 
L 839.620283 194.846131 
L 839.662175 194.90607 
L 839.766903 195.482341 
L 840.157888 199.368851 
L 840.248653 198.801149 
L 840.381308 195.55219 
L 840.611711 182.893451 
L 841.065533 159.249521 
L 841.12837 158.807693 
L 841.184225 159.096996 
L 841.302917 161.571211 
L 841.966196 180.701287 
L 842.036015 180.543199 
L 842.266417 179.553746 
L 842.329254 179.751764 
L 842.427 180.838078 
L 842.427 180.838078 
" style="fill:none;stroke:#1f77b4;stroke-linecap:square;stroke-width:1.5;"/>
   </g>
   <g id="patch_3">
    <path d="M 121.77 307.584 
L 121.77 41.472 
" style="fill:none;stroke:#000000;stroke-linecap:square;stroke-linejoin:miter;stroke-width:0.8;"/>
   </g>
   <g id="patch_4">
    <path d="M 876.744 307.584 
L 876.744 41.472 
" style="fill:none;stroke:#000000;stroke-linecap:square;stroke-linejoin:miter;stroke-width:0.8;"/>
   </g>
   <g id="patch_5">
    <path d="M 121.77 307.584 
L 876.744 307.584 
" style="fill:none;stroke:#000000;stroke-linecap:square;stroke-linejoin:miter;stroke-width:0.8;"/>
   </g>
   <g id="patch_6">
    <path d="M 121.77 41.472 
L 876.744 41.472 
" style="fill:none;stroke:#000000;stroke-linecap:square;stroke-linejoin:miter;stroke-width:0.8;"/>
   </g>
  </g>
 </g>
 <defs>
  <clipPath id="pc10dc0a380">
   <rect height="266.112" width="754.974" x="121.77" y="41.472"/>
  </clipPath>
 </defs>
</svg>
